G04 #@! TF.GenerationSoftware,KiCad,Pcbnew,5.1.4+dfsg1-1~bpo10+1*
G04 #@! TF.CreationDate,2020-06-27T23:46:46+02:00*
G04 #@! TF.ProjectId,SinS,53696e53-2e6b-4696-9361-645f70636258,rev?*
G04 #@! TF.SameCoordinates,Original*
G04 #@! TF.FileFunction,Soldermask,Bot*
G04 #@! TF.FilePolarity,Negative*
%FSLAX46Y46*%
G04 Gerber Fmt 4.6, Leading zero omitted, Abs format (unit mm)*
G04 Created by KiCad (PCBNEW 5.1.4+dfsg1-1~bpo10+1) date 2020-06-27 23:46:46*
%MOMM*%
%LPD*%
G04 APERTURE LIST*
%ADD10C,0.100000*%
G04 APERTURE END LIST*
D10*
G36*
X118936328Y-135599122D02*
G01*
X119072436Y-135640410D01*
X119120309Y-135654932D01*
X119235674Y-135716596D01*
X119289860Y-135745559D01*
X119336035Y-135783454D01*
X119438476Y-135867524D01*
X119522546Y-135969965D01*
X119560441Y-136016140D01*
X119603006Y-136095775D01*
X119651068Y-136185691D01*
X119651069Y-136185694D01*
X119706878Y-136369671D01*
X119721000Y-136513056D01*
X119721000Y-137806944D01*
X119706878Y-137950329D01*
X119651069Y-138134306D01*
X119651068Y-138134309D01*
X119651067Y-138134310D01*
X119560441Y-138303860D01*
X119522546Y-138350035D01*
X119438476Y-138452476D01*
X119336035Y-138536546D01*
X119289860Y-138574441D01*
X119210225Y-138617006D01*
X119120309Y-138665068D01*
X119120306Y-138665069D01*
X118936329Y-138720878D01*
X118745000Y-138739722D01*
X118553672Y-138720878D01*
X118369695Y-138665069D01*
X118369692Y-138665068D01*
X118279776Y-138617006D01*
X118200141Y-138574441D01*
X118153966Y-138536546D01*
X118051525Y-138452476D01*
X117967455Y-138350035D01*
X117929560Y-138303860D01*
X117838932Y-138134306D01*
X117783123Y-137950329D01*
X117783123Y-137950327D01*
X117783122Y-137950325D01*
X117769000Y-137806945D01*
X117769000Y-136513056D01*
X117783122Y-136369674D01*
X117783122Y-136369672D01*
X117838931Y-136185695D01*
X117838932Y-136185691D01*
X117900596Y-136070326D01*
X117929559Y-136016140D01*
X117967454Y-135969965D01*
X118051524Y-135867524D01*
X118153965Y-135783454D01*
X118200140Y-135745559D01*
X118279775Y-135702994D01*
X118369691Y-135654932D01*
X118369694Y-135654931D01*
X118553671Y-135599122D01*
X118745000Y-135580278D01*
X118936328Y-135599122D01*
X118936328Y-135599122D01*
G37*
G36*
X70596328Y-135599122D02*
G01*
X70732436Y-135640410D01*
X70780309Y-135654932D01*
X70895674Y-135716596D01*
X70949860Y-135745559D01*
X70996035Y-135783454D01*
X71098476Y-135867524D01*
X71182546Y-135969965D01*
X71220441Y-136016140D01*
X71263006Y-136095775D01*
X71311068Y-136185691D01*
X71311069Y-136185694D01*
X71366878Y-136369671D01*
X71381000Y-136513056D01*
X71381000Y-137806944D01*
X71366878Y-137950329D01*
X71311069Y-138134306D01*
X71311068Y-138134309D01*
X71311067Y-138134310D01*
X71220441Y-138303860D01*
X71182546Y-138350035D01*
X71098476Y-138452476D01*
X70996035Y-138536546D01*
X70949860Y-138574441D01*
X70870225Y-138617006D01*
X70780309Y-138665068D01*
X70780306Y-138665069D01*
X70596329Y-138720878D01*
X70405000Y-138739722D01*
X70213672Y-138720878D01*
X70029695Y-138665069D01*
X70029692Y-138665068D01*
X69939776Y-138617006D01*
X69860141Y-138574441D01*
X69813966Y-138536546D01*
X69711525Y-138452476D01*
X69627455Y-138350035D01*
X69589560Y-138303860D01*
X69498932Y-138134306D01*
X69443123Y-137950329D01*
X69443123Y-137950327D01*
X69443122Y-137950325D01*
X69429000Y-137806945D01*
X69429000Y-136513056D01*
X69443122Y-136369674D01*
X69443122Y-136369672D01*
X69498931Y-136185695D01*
X69498932Y-136185691D01*
X69560596Y-136070326D01*
X69589559Y-136016140D01*
X69627454Y-135969965D01*
X69711524Y-135867524D01*
X69813965Y-135783454D01*
X69860140Y-135745559D01*
X69939775Y-135702994D01*
X70029691Y-135654932D01*
X70029694Y-135654931D01*
X70213671Y-135599122D01*
X70405000Y-135580278D01*
X70596328Y-135599122D01*
X70596328Y-135599122D01*
G37*
G36*
X65596328Y-135599122D02*
G01*
X65732436Y-135640410D01*
X65780309Y-135654932D01*
X65895674Y-135716596D01*
X65949860Y-135745559D01*
X65996035Y-135783454D01*
X66098476Y-135867524D01*
X66182546Y-135969965D01*
X66220441Y-136016140D01*
X66263006Y-136095775D01*
X66311068Y-136185691D01*
X66311069Y-136185694D01*
X66366878Y-136369671D01*
X66381000Y-136513056D01*
X66381000Y-137806944D01*
X66366878Y-137950329D01*
X66311069Y-138134306D01*
X66311068Y-138134309D01*
X66311067Y-138134310D01*
X66220441Y-138303860D01*
X66182546Y-138350035D01*
X66098476Y-138452476D01*
X65996035Y-138536546D01*
X65949860Y-138574441D01*
X65870225Y-138617006D01*
X65780309Y-138665068D01*
X65780306Y-138665069D01*
X65596329Y-138720878D01*
X65405000Y-138739722D01*
X65213672Y-138720878D01*
X65029695Y-138665069D01*
X65029692Y-138665068D01*
X64939776Y-138617006D01*
X64860141Y-138574441D01*
X64813966Y-138536546D01*
X64711525Y-138452476D01*
X64627455Y-138350035D01*
X64589560Y-138303860D01*
X64498932Y-138134306D01*
X64443123Y-137950329D01*
X64443123Y-137950327D01*
X64443122Y-137950325D01*
X64429000Y-137806945D01*
X64429000Y-136513056D01*
X64443122Y-136369674D01*
X64443122Y-136369672D01*
X64498931Y-136185695D01*
X64498932Y-136185691D01*
X64560596Y-136070326D01*
X64589559Y-136016140D01*
X64627454Y-135969965D01*
X64711524Y-135867524D01*
X64813965Y-135783454D01*
X64860140Y-135745559D01*
X64939775Y-135702994D01*
X65029691Y-135654932D01*
X65029694Y-135654931D01*
X65213671Y-135599122D01*
X65405000Y-135580278D01*
X65596328Y-135599122D01*
X65596328Y-135599122D01*
G37*
G36*
X88376328Y-135599122D02*
G01*
X88512436Y-135640410D01*
X88560309Y-135654932D01*
X88675674Y-135716596D01*
X88729860Y-135745559D01*
X88776035Y-135783454D01*
X88878476Y-135867524D01*
X88962546Y-135969965D01*
X89000441Y-136016140D01*
X89043006Y-136095775D01*
X89091068Y-136185691D01*
X89091069Y-136185694D01*
X89146878Y-136369671D01*
X89161000Y-136513056D01*
X89161000Y-137806944D01*
X89146878Y-137950329D01*
X89091069Y-138134306D01*
X89091068Y-138134309D01*
X89091067Y-138134310D01*
X89000441Y-138303860D01*
X88962546Y-138350035D01*
X88878476Y-138452476D01*
X88776035Y-138536546D01*
X88729860Y-138574441D01*
X88650225Y-138617006D01*
X88560309Y-138665068D01*
X88560306Y-138665069D01*
X88376329Y-138720878D01*
X88185000Y-138739722D01*
X87993672Y-138720878D01*
X87809695Y-138665069D01*
X87809692Y-138665068D01*
X87719776Y-138617006D01*
X87640141Y-138574441D01*
X87593966Y-138536546D01*
X87491525Y-138452476D01*
X87407455Y-138350035D01*
X87369560Y-138303860D01*
X87278932Y-138134306D01*
X87223123Y-137950329D01*
X87223123Y-137950327D01*
X87223122Y-137950325D01*
X87209000Y-137806945D01*
X87209000Y-136513056D01*
X87223122Y-136369674D01*
X87223122Y-136369672D01*
X87278931Y-136185695D01*
X87278932Y-136185691D01*
X87340596Y-136070326D01*
X87369559Y-136016140D01*
X87407454Y-135969965D01*
X87491524Y-135867524D01*
X87593965Y-135783454D01*
X87640140Y-135745559D01*
X87719775Y-135702994D01*
X87809691Y-135654932D01*
X87809694Y-135654931D01*
X87993671Y-135599122D01*
X88185000Y-135580278D01*
X88376328Y-135599122D01*
X88376328Y-135599122D01*
G37*
G36*
X83376328Y-135599122D02*
G01*
X83512436Y-135640410D01*
X83560309Y-135654932D01*
X83675674Y-135716596D01*
X83729860Y-135745559D01*
X83776035Y-135783454D01*
X83878476Y-135867524D01*
X83962546Y-135969965D01*
X84000441Y-136016140D01*
X84043006Y-136095775D01*
X84091068Y-136185691D01*
X84091069Y-136185694D01*
X84146878Y-136369671D01*
X84161000Y-136513056D01*
X84161000Y-137806944D01*
X84146878Y-137950329D01*
X84091069Y-138134306D01*
X84091068Y-138134309D01*
X84091067Y-138134310D01*
X84000441Y-138303860D01*
X83962546Y-138350035D01*
X83878476Y-138452476D01*
X83776035Y-138536546D01*
X83729860Y-138574441D01*
X83650225Y-138617006D01*
X83560309Y-138665068D01*
X83560306Y-138665069D01*
X83376329Y-138720878D01*
X83185000Y-138739722D01*
X82993672Y-138720878D01*
X82809695Y-138665069D01*
X82809692Y-138665068D01*
X82719776Y-138617006D01*
X82640141Y-138574441D01*
X82593966Y-138536546D01*
X82491525Y-138452476D01*
X82407455Y-138350035D01*
X82369560Y-138303860D01*
X82278932Y-138134306D01*
X82223123Y-137950329D01*
X82223123Y-137950327D01*
X82223122Y-137950325D01*
X82209000Y-137806945D01*
X82209000Y-136513056D01*
X82223122Y-136369674D01*
X82223122Y-136369672D01*
X82278931Y-136185695D01*
X82278932Y-136185691D01*
X82340596Y-136070326D01*
X82369559Y-136016140D01*
X82407454Y-135969965D01*
X82491524Y-135867524D01*
X82593965Y-135783454D01*
X82640140Y-135745559D01*
X82719775Y-135702994D01*
X82809691Y-135654932D01*
X82809694Y-135654931D01*
X82993671Y-135599122D01*
X83185000Y-135580278D01*
X83376328Y-135599122D01*
X83376328Y-135599122D01*
G37*
G36*
X106156328Y-135599122D02*
G01*
X106292436Y-135640410D01*
X106340309Y-135654932D01*
X106455674Y-135716596D01*
X106509860Y-135745559D01*
X106556035Y-135783454D01*
X106658476Y-135867524D01*
X106742546Y-135969965D01*
X106780441Y-136016140D01*
X106823006Y-136095775D01*
X106871068Y-136185691D01*
X106871069Y-136185694D01*
X106926878Y-136369671D01*
X106941000Y-136513056D01*
X106941000Y-137806944D01*
X106926878Y-137950329D01*
X106871069Y-138134306D01*
X106871068Y-138134309D01*
X106871067Y-138134310D01*
X106780441Y-138303860D01*
X106742546Y-138350035D01*
X106658476Y-138452476D01*
X106556035Y-138536546D01*
X106509860Y-138574441D01*
X106430225Y-138617006D01*
X106340309Y-138665068D01*
X106340306Y-138665069D01*
X106156329Y-138720878D01*
X105965000Y-138739722D01*
X105773672Y-138720878D01*
X105589695Y-138665069D01*
X105589692Y-138665068D01*
X105499776Y-138617006D01*
X105420141Y-138574441D01*
X105373966Y-138536546D01*
X105271525Y-138452476D01*
X105187455Y-138350035D01*
X105149560Y-138303860D01*
X105058932Y-138134306D01*
X105003123Y-137950329D01*
X105003123Y-137950327D01*
X105003122Y-137950325D01*
X104989000Y-137806945D01*
X104989000Y-136513056D01*
X105003122Y-136369674D01*
X105003122Y-136369672D01*
X105058931Y-136185695D01*
X105058932Y-136185691D01*
X105120596Y-136070326D01*
X105149559Y-136016140D01*
X105187454Y-135969965D01*
X105271524Y-135867524D01*
X105373965Y-135783454D01*
X105420140Y-135745559D01*
X105499775Y-135702994D01*
X105589691Y-135654932D01*
X105589694Y-135654931D01*
X105773671Y-135599122D01*
X105965000Y-135580278D01*
X106156328Y-135599122D01*
X106156328Y-135599122D01*
G37*
G36*
X101156328Y-135599122D02*
G01*
X101292436Y-135640410D01*
X101340309Y-135654932D01*
X101455674Y-135716596D01*
X101509860Y-135745559D01*
X101556035Y-135783454D01*
X101658476Y-135867524D01*
X101742546Y-135969965D01*
X101780441Y-136016140D01*
X101823006Y-136095775D01*
X101871068Y-136185691D01*
X101871069Y-136185694D01*
X101926878Y-136369671D01*
X101941000Y-136513056D01*
X101941000Y-137806944D01*
X101926878Y-137950329D01*
X101871069Y-138134306D01*
X101871068Y-138134309D01*
X101871067Y-138134310D01*
X101780441Y-138303860D01*
X101742546Y-138350035D01*
X101658476Y-138452476D01*
X101556035Y-138536546D01*
X101509860Y-138574441D01*
X101430225Y-138617006D01*
X101340309Y-138665068D01*
X101340306Y-138665069D01*
X101156329Y-138720878D01*
X100965000Y-138739722D01*
X100773672Y-138720878D01*
X100589695Y-138665069D01*
X100589692Y-138665068D01*
X100499776Y-138617006D01*
X100420141Y-138574441D01*
X100373966Y-138536546D01*
X100271525Y-138452476D01*
X100187455Y-138350035D01*
X100149560Y-138303860D01*
X100058932Y-138134306D01*
X100003123Y-137950329D01*
X100003123Y-137950327D01*
X100003122Y-137950325D01*
X99989000Y-137806945D01*
X99989000Y-136513056D01*
X100003122Y-136369674D01*
X100003122Y-136369672D01*
X100058931Y-136185695D01*
X100058932Y-136185691D01*
X100120596Y-136070326D01*
X100149559Y-136016140D01*
X100187454Y-135969965D01*
X100271524Y-135867524D01*
X100373965Y-135783454D01*
X100420140Y-135745559D01*
X100499775Y-135702994D01*
X100589691Y-135654932D01*
X100589694Y-135654931D01*
X100773671Y-135599122D01*
X100965000Y-135580278D01*
X101156328Y-135599122D01*
X101156328Y-135599122D01*
G37*
G36*
X123936328Y-135599122D02*
G01*
X124072436Y-135640410D01*
X124120309Y-135654932D01*
X124235674Y-135716596D01*
X124289860Y-135745559D01*
X124336035Y-135783454D01*
X124438476Y-135867524D01*
X124522546Y-135969965D01*
X124560441Y-136016140D01*
X124603006Y-136095775D01*
X124651068Y-136185691D01*
X124651069Y-136185694D01*
X124706878Y-136369671D01*
X124721000Y-136513056D01*
X124721000Y-137806944D01*
X124706878Y-137950329D01*
X124651069Y-138134306D01*
X124651068Y-138134309D01*
X124651067Y-138134310D01*
X124560441Y-138303860D01*
X124522546Y-138350035D01*
X124438476Y-138452476D01*
X124336035Y-138536546D01*
X124289860Y-138574441D01*
X124210225Y-138617006D01*
X124120309Y-138665068D01*
X124120306Y-138665069D01*
X123936329Y-138720878D01*
X123745000Y-138739722D01*
X123553672Y-138720878D01*
X123369695Y-138665069D01*
X123369692Y-138665068D01*
X123279776Y-138617006D01*
X123200141Y-138574441D01*
X123153966Y-138536546D01*
X123051525Y-138452476D01*
X122967455Y-138350035D01*
X122929560Y-138303860D01*
X122838932Y-138134306D01*
X122783123Y-137950329D01*
X122783123Y-137950327D01*
X122783122Y-137950325D01*
X122769000Y-137806945D01*
X122769000Y-136513056D01*
X122783122Y-136369674D01*
X122783122Y-136369672D01*
X122838931Y-136185695D01*
X122838932Y-136185691D01*
X122900596Y-136070326D01*
X122929559Y-136016140D01*
X122967454Y-135969965D01*
X123051524Y-135867524D01*
X123153965Y-135783454D01*
X123200140Y-135745559D01*
X123279775Y-135702994D01*
X123369691Y-135654932D01*
X123369694Y-135654931D01*
X123553671Y-135599122D01*
X123745000Y-135580278D01*
X123936328Y-135599122D01*
X123936328Y-135599122D01*
G37*
G36*
X118936328Y-123099122D02*
G01*
X119072436Y-123140410D01*
X119120309Y-123154932D01*
X119235674Y-123216596D01*
X119289860Y-123245559D01*
X119336035Y-123283454D01*
X119438476Y-123367524D01*
X119522546Y-123469965D01*
X119560441Y-123516140D01*
X119603006Y-123595775D01*
X119651068Y-123685691D01*
X119651069Y-123685694D01*
X119706878Y-123869671D01*
X119721000Y-124013056D01*
X119721000Y-125306944D01*
X119706878Y-125450329D01*
X119651069Y-125634306D01*
X119651068Y-125634309D01*
X119651067Y-125634310D01*
X119560441Y-125803860D01*
X119522546Y-125850035D01*
X119438476Y-125952476D01*
X119336035Y-126036546D01*
X119289860Y-126074441D01*
X119210225Y-126117006D01*
X119120309Y-126165068D01*
X119120306Y-126165069D01*
X118936329Y-126220878D01*
X118745000Y-126239722D01*
X118553672Y-126220878D01*
X118369695Y-126165069D01*
X118369692Y-126165068D01*
X118279776Y-126117006D01*
X118200141Y-126074441D01*
X118153966Y-126036546D01*
X118051525Y-125952476D01*
X117967455Y-125850035D01*
X117929560Y-125803860D01*
X117838932Y-125634306D01*
X117783123Y-125450329D01*
X117783123Y-125450327D01*
X117783122Y-125450325D01*
X117769000Y-125306945D01*
X117769000Y-124013056D01*
X117783122Y-123869674D01*
X117783122Y-123869672D01*
X117838931Y-123685695D01*
X117838932Y-123685691D01*
X117900596Y-123570326D01*
X117929559Y-123516140D01*
X117967454Y-123469965D01*
X118051524Y-123367524D01*
X118153965Y-123283454D01*
X118200140Y-123245559D01*
X118279775Y-123202994D01*
X118369691Y-123154932D01*
X118369694Y-123154931D01*
X118553671Y-123099122D01*
X118745000Y-123080278D01*
X118936328Y-123099122D01*
X118936328Y-123099122D01*
G37*
G36*
X83376328Y-123099122D02*
G01*
X83512436Y-123140410D01*
X83560309Y-123154932D01*
X83675674Y-123216596D01*
X83729860Y-123245559D01*
X83776035Y-123283454D01*
X83878476Y-123367524D01*
X83962546Y-123469965D01*
X84000441Y-123516140D01*
X84043006Y-123595775D01*
X84091068Y-123685691D01*
X84091069Y-123685694D01*
X84146878Y-123869671D01*
X84161000Y-124013056D01*
X84161000Y-125306944D01*
X84146878Y-125450329D01*
X84091069Y-125634306D01*
X84091068Y-125634309D01*
X84091067Y-125634310D01*
X84000441Y-125803860D01*
X83962546Y-125850035D01*
X83878476Y-125952476D01*
X83776035Y-126036546D01*
X83729860Y-126074441D01*
X83650225Y-126117006D01*
X83560309Y-126165068D01*
X83560306Y-126165069D01*
X83376329Y-126220878D01*
X83185000Y-126239722D01*
X82993672Y-126220878D01*
X82809695Y-126165069D01*
X82809692Y-126165068D01*
X82719776Y-126117006D01*
X82640141Y-126074441D01*
X82593966Y-126036546D01*
X82491525Y-125952476D01*
X82407455Y-125850035D01*
X82369560Y-125803860D01*
X82278932Y-125634306D01*
X82223123Y-125450329D01*
X82223123Y-125450327D01*
X82223122Y-125450325D01*
X82209000Y-125306945D01*
X82209000Y-124013056D01*
X82223122Y-123869674D01*
X82223122Y-123869672D01*
X82278931Y-123685695D01*
X82278932Y-123685691D01*
X82340596Y-123570326D01*
X82369559Y-123516140D01*
X82407454Y-123469965D01*
X82491524Y-123367524D01*
X82593965Y-123283454D01*
X82640140Y-123245559D01*
X82719775Y-123202994D01*
X82809691Y-123154932D01*
X82809694Y-123154931D01*
X82993671Y-123099122D01*
X83185000Y-123080278D01*
X83376328Y-123099122D01*
X83376328Y-123099122D01*
G37*
G36*
X123936328Y-123099122D02*
G01*
X124072436Y-123140410D01*
X124120309Y-123154932D01*
X124235674Y-123216596D01*
X124289860Y-123245559D01*
X124336035Y-123283454D01*
X124438476Y-123367524D01*
X124522546Y-123469965D01*
X124560441Y-123516140D01*
X124603006Y-123595775D01*
X124651068Y-123685691D01*
X124651069Y-123685694D01*
X124706878Y-123869671D01*
X124721000Y-124013056D01*
X124721000Y-125306944D01*
X124706878Y-125450329D01*
X124651069Y-125634306D01*
X124651068Y-125634309D01*
X124651067Y-125634310D01*
X124560441Y-125803860D01*
X124522546Y-125850035D01*
X124438476Y-125952476D01*
X124336035Y-126036546D01*
X124289860Y-126074441D01*
X124210225Y-126117006D01*
X124120309Y-126165068D01*
X124120306Y-126165069D01*
X123936329Y-126220878D01*
X123745000Y-126239722D01*
X123553672Y-126220878D01*
X123369695Y-126165069D01*
X123369692Y-126165068D01*
X123279776Y-126117006D01*
X123200141Y-126074441D01*
X123153966Y-126036546D01*
X123051525Y-125952476D01*
X122967455Y-125850035D01*
X122929560Y-125803860D01*
X122838932Y-125634306D01*
X122783123Y-125450329D01*
X122783123Y-125450327D01*
X122783122Y-125450325D01*
X122769000Y-125306945D01*
X122769000Y-124013056D01*
X122783122Y-123869674D01*
X122783122Y-123869672D01*
X122838931Y-123685695D01*
X122838932Y-123685691D01*
X122900596Y-123570326D01*
X122929559Y-123516140D01*
X122967454Y-123469965D01*
X123051524Y-123367524D01*
X123153965Y-123283454D01*
X123200140Y-123245559D01*
X123279775Y-123202994D01*
X123369691Y-123154932D01*
X123369694Y-123154931D01*
X123553671Y-123099122D01*
X123745000Y-123080278D01*
X123936328Y-123099122D01*
X123936328Y-123099122D01*
G37*
G36*
X106156328Y-123099122D02*
G01*
X106292436Y-123140410D01*
X106340309Y-123154932D01*
X106455674Y-123216596D01*
X106509860Y-123245559D01*
X106556035Y-123283454D01*
X106658476Y-123367524D01*
X106742546Y-123469965D01*
X106780441Y-123516140D01*
X106823006Y-123595775D01*
X106871068Y-123685691D01*
X106871069Y-123685694D01*
X106926878Y-123869671D01*
X106941000Y-124013056D01*
X106941000Y-125306944D01*
X106926878Y-125450329D01*
X106871069Y-125634306D01*
X106871068Y-125634309D01*
X106871067Y-125634310D01*
X106780441Y-125803860D01*
X106742546Y-125850035D01*
X106658476Y-125952476D01*
X106556035Y-126036546D01*
X106509860Y-126074441D01*
X106430225Y-126117006D01*
X106340309Y-126165068D01*
X106340306Y-126165069D01*
X106156329Y-126220878D01*
X105965000Y-126239722D01*
X105773672Y-126220878D01*
X105589695Y-126165069D01*
X105589692Y-126165068D01*
X105499776Y-126117006D01*
X105420141Y-126074441D01*
X105373966Y-126036546D01*
X105271525Y-125952476D01*
X105187455Y-125850035D01*
X105149560Y-125803860D01*
X105058932Y-125634306D01*
X105003123Y-125450329D01*
X105003123Y-125450327D01*
X105003122Y-125450325D01*
X104989000Y-125306945D01*
X104989000Y-124013056D01*
X105003122Y-123869674D01*
X105003122Y-123869672D01*
X105058931Y-123685695D01*
X105058932Y-123685691D01*
X105120596Y-123570326D01*
X105149559Y-123516140D01*
X105187454Y-123469965D01*
X105271524Y-123367524D01*
X105373965Y-123283454D01*
X105420140Y-123245559D01*
X105499775Y-123202994D01*
X105589691Y-123154932D01*
X105589694Y-123154931D01*
X105773671Y-123099122D01*
X105965000Y-123080278D01*
X106156328Y-123099122D01*
X106156328Y-123099122D01*
G37*
G36*
X101156328Y-123099122D02*
G01*
X101292436Y-123140410D01*
X101340309Y-123154932D01*
X101455674Y-123216596D01*
X101509860Y-123245559D01*
X101556035Y-123283454D01*
X101658476Y-123367524D01*
X101742546Y-123469965D01*
X101780441Y-123516140D01*
X101823006Y-123595775D01*
X101871068Y-123685691D01*
X101871069Y-123685694D01*
X101926878Y-123869671D01*
X101941000Y-124013056D01*
X101941000Y-125306944D01*
X101926878Y-125450329D01*
X101871069Y-125634306D01*
X101871068Y-125634309D01*
X101871067Y-125634310D01*
X101780441Y-125803860D01*
X101742546Y-125850035D01*
X101658476Y-125952476D01*
X101556035Y-126036546D01*
X101509860Y-126074441D01*
X101430225Y-126117006D01*
X101340309Y-126165068D01*
X101340306Y-126165069D01*
X101156329Y-126220878D01*
X100965000Y-126239722D01*
X100773672Y-126220878D01*
X100589695Y-126165069D01*
X100589692Y-126165068D01*
X100499776Y-126117006D01*
X100420141Y-126074441D01*
X100373966Y-126036546D01*
X100271525Y-125952476D01*
X100187455Y-125850035D01*
X100149560Y-125803860D01*
X100058932Y-125634306D01*
X100003123Y-125450329D01*
X100003123Y-125450327D01*
X100003122Y-125450325D01*
X99989000Y-125306945D01*
X99989000Y-124013056D01*
X100003122Y-123869674D01*
X100003122Y-123869672D01*
X100058931Y-123685695D01*
X100058932Y-123685691D01*
X100120596Y-123570326D01*
X100149559Y-123516140D01*
X100187454Y-123469965D01*
X100271524Y-123367524D01*
X100373965Y-123283454D01*
X100420140Y-123245559D01*
X100499775Y-123202994D01*
X100589691Y-123154932D01*
X100589694Y-123154931D01*
X100773671Y-123099122D01*
X100965000Y-123080278D01*
X101156328Y-123099122D01*
X101156328Y-123099122D01*
G37*
G36*
X88376328Y-123099122D02*
G01*
X88512436Y-123140410D01*
X88560309Y-123154932D01*
X88675674Y-123216596D01*
X88729860Y-123245559D01*
X88776035Y-123283454D01*
X88878476Y-123367524D01*
X88962546Y-123469965D01*
X89000441Y-123516140D01*
X89043006Y-123595775D01*
X89091068Y-123685691D01*
X89091069Y-123685694D01*
X89146878Y-123869671D01*
X89161000Y-124013056D01*
X89161000Y-125306944D01*
X89146878Y-125450329D01*
X89091069Y-125634306D01*
X89091068Y-125634309D01*
X89091067Y-125634310D01*
X89000441Y-125803860D01*
X88962546Y-125850035D01*
X88878476Y-125952476D01*
X88776035Y-126036546D01*
X88729860Y-126074441D01*
X88650225Y-126117006D01*
X88560309Y-126165068D01*
X88560306Y-126165069D01*
X88376329Y-126220878D01*
X88185000Y-126239722D01*
X87993672Y-126220878D01*
X87809695Y-126165069D01*
X87809692Y-126165068D01*
X87719776Y-126117006D01*
X87640141Y-126074441D01*
X87593966Y-126036546D01*
X87491525Y-125952476D01*
X87407455Y-125850035D01*
X87369560Y-125803860D01*
X87278932Y-125634306D01*
X87223123Y-125450329D01*
X87223123Y-125450327D01*
X87223122Y-125450325D01*
X87209000Y-125306945D01*
X87209000Y-124013056D01*
X87223122Y-123869674D01*
X87223122Y-123869672D01*
X87278931Y-123685695D01*
X87278932Y-123685691D01*
X87340596Y-123570326D01*
X87369559Y-123516140D01*
X87407454Y-123469965D01*
X87491524Y-123367524D01*
X87593965Y-123283454D01*
X87640140Y-123245559D01*
X87719775Y-123202994D01*
X87809691Y-123154932D01*
X87809694Y-123154931D01*
X87993671Y-123099122D01*
X88185000Y-123080278D01*
X88376328Y-123099122D01*
X88376328Y-123099122D01*
G37*
G36*
X65596328Y-123099122D02*
G01*
X65732436Y-123140410D01*
X65780309Y-123154932D01*
X65895674Y-123216596D01*
X65949860Y-123245559D01*
X65996035Y-123283454D01*
X66098476Y-123367524D01*
X66182546Y-123469965D01*
X66220441Y-123516140D01*
X66263006Y-123595775D01*
X66311068Y-123685691D01*
X66311069Y-123685694D01*
X66366878Y-123869671D01*
X66381000Y-124013056D01*
X66381000Y-125306944D01*
X66366878Y-125450329D01*
X66311069Y-125634306D01*
X66311068Y-125634309D01*
X66311067Y-125634310D01*
X66220441Y-125803860D01*
X66182546Y-125850035D01*
X66098476Y-125952476D01*
X65996035Y-126036546D01*
X65949860Y-126074441D01*
X65870225Y-126117006D01*
X65780309Y-126165068D01*
X65780306Y-126165069D01*
X65596329Y-126220878D01*
X65405000Y-126239722D01*
X65213672Y-126220878D01*
X65029695Y-126165069D01*
X65029692Y-126165068D01*
X64939776Y-126117006D01*
X64860141Y-126074441D01*
X64813966Y-126036546D01*
X64711525Y-125952476D01*
X64627455Y-125850035D01*
X64589560Y-125803860D01*
X64498932Y-125634306D01*
X64443123Y-125450329D01*
X64443123Y-125450327D01*
X64443122Y-125450325D01*
X64429000Y-125306945D01*
X64429000Y-124013056D01*
X64443122Y-123869674D01*
X64443122Y-123869672D01*
X64498931Y-123685695D01*
X64498932Y-123685691D01*
X64560596Y-123570326D01*
X64589559Y-123516140D01*
X64627454Y-123469965D01*
X64711524Y-123367524D01*
X64813965Y-123283454D01*
X64860140Y-123245559D01*
X64939775Y-123202994D01*
X65029691Y-123154932D01*
X65029694Y-123154931D01*
X65213671Y-123099122D01*
X65405000Y-123080278D01*
X65596328Y-123099122D01*
X65596328Y-123099122D01*
G37*
G36*
X70596328Y-123099122D02*
G01*
X70732436Y-123140410D01*
X70780309Y-123154932D01*
X70895674Y-123216596D01*
X70949860Y-123245559D01*
X70996035Y-123283454D01*
X71098476Y-123367524D01*
X71182546Y-123469965D01*
X71220441Y-123516140D01*
X71263006Y-123595775D01*
X71311068Y-123685691D01*
X71311069Y-123685694D01*
X71366878Y-123869671D01*
X71381000Y-124013056D01*
X71381000Y-125306944D01*
X71366878Y-125450329D01*
X71311069Y-125634306D01*
X71311068Y-125634309D01*
X71311067Y-125634310D01*
X71220441Y-125803860D01*
X71182546Y-125850035D01*
X71098476Y-125952476D01*
X70996035Y-126036546D01*
X70949860Y-126074441D01*
X70870225Y-126117006D01*
X70780309Y-126165068D01*
X70780306Y-126165069D01*
X70596329Y-126220878D01*
X70405000Y-126239722D01*
X70213672Y-126220878D01*
X70029695Y-126165069D01*
X70029692Y-126165068D01*
X69939776Y-126117006D01*
X69860141Y-126074441D01*
X69813966Y-126036546D01*
X69711525Y-125952476D01*
X69627455Y-125850035D01*
X69589560Y-125803860D01*
X69498932Y-125634306D01*
X69443123Y-125450329D01*
X69443123Y-125450327D01*
X69443122Y-125450325D01*
X69429000Y-125306945D01*
X69429000Y-124013056D01*
X69443122Y-123869674D01*
X69443122Y-123869672D01*
X69498931Y-123685695D01*
X69498932Y-123685691D01*
X69560596Y-123570326D01*
X69589559Y-123516140D01*
X69627454Y-123469965D01*
X69711524Y-123367524D01*
X69813965Y-123283454D01*
X69860140Y-123245559D01*
X69939775Y-123202994D01*
X70029691Y-123154932D01*
X70029694Y-123154931D01*
X70213671Y-123099122D01*
X70405000Y-123080278D01*
X70596328Y-123099122D01*
X70596328Y-123099122D01*
G37*
G36*
X122236000Y-117791000D02*
G01*
X120334000Y-117791000D01*
X120334000Y-115889000D01*
X122236000Y-115889000D01*
X122236000Y-117791000D01*
X122236000Y-117791000D01*
G37*
G36*
X104456000Y-117791000D02*
G01*
X102554000Y-117791000D01*
X102554000Y-115889000D01*
X104456000Y-115889000D01*
X104456000Y-117791000D01*
X104456000Y-117791000D01*
G37*
G36*
X68896000Y-117791000D02*
G01*
X66994000Y-117791000D01*
X66994000Y-115889000D01*
X68896000Y-115889000D01*
X68896000Y-117791000D01*
X68896000Y-117791000D01*
G37*
G36*
X86676000Y-117791000D02*
G01*
X84774000Y-117791000D01*
X84774000Y-115889000D01*
X86676000Y-115889000D01*
X86676000Y-117791000D01*
X86676000Y-117791000D01*
G37*
G36*
X121562395Y-113385546D02*
G01*
X121735466Y-113457234D01*
X121735467Y-113457235D01*
X121891227Y-113561310D01*
X122023690Y-113693773D01*
X122023691Y-113693775D01*
X122127766Y-113849534D01*
X122199454Y-114022605D01*
X122236000Y-114206333D01*
X122236000Y-114393667D01*
X122199454Y-114577395D01*
X122127766Y-114750466D01*
X122127765Y-114750467D01*
X122023690Y-114906227D01*
X121891227Y-115038690D01*
X121812818Y-115091081D01*
X121735466Y-115142766D01*
X121562395Y-115214454D01*
X121378667Y-115251000D01*
X121191333Y-115251000D01*
X121007605Y-115214454D01*
X120834534Y-115142766D01*
X120757182Y-115091081D01*
X120678773Y-115038690D01*
X120546310Y-114906227D01*
X120442235Y-114750467D01*
X120442234Y-114750466D01*
X120370546Y-114577395D01*
X120334000Y-114393667D01*
X120334000Y-114206333D01*
X120370546Y-114022605D01*
X120442234Y-113849534D01*
X120546309Y-113693775D01*
X120546310Y-113693773D01*
X120678773Y-113561310D01*
X120834533Y-113457235D01*
X120834534Y-113457234D01*
X121007605Y-113385546D01*
X121191333Y-113349000D01*
X121378667Y-113349000D01*
X121562395Y-113385546D01*
X121562395Y-113385546D01*
G37*
G36*
X68222395Y-113385546D02*
G01*
X68395466Y-113457234D01*
X68395467Y-113457235D01*
X68551227Y-113561310D01*
X68683690Y-113693773D01*
X68683691Y-113693775D01*
X68787766Y-113849534D01*
X68859454Y-114022605D01*
X68896000Y-114206333D01*
X68896000Y-114393667D01*
X68859454Y-114577395D01*
X68787766Y-114750466D01*
X68787765Y-114750467D01*
X68683690Y-114906227D01*
X68551227Y-115038690D01*
X68472818Y-115091081D01*
X68395466Y-115142766D01*
X68222395Y-115214454D01*
X68038667Y-115251000D01*
X67851333Y-115251000D01*
X67667605Y-115214454D01*
X67494534Y-115142766D01*
X67417182Y-115091081D01*
X67338773Y-115038690D01*
X67206310Y-114906227D01*
X67102235Y-114750467D01*
X67102234Y-114750466D01*
X67030546Y-114577395D01*
X66994000Y-114393667D01*
X66994000Y-114206333D01*
X67030546Y-114022605D01*
X67102234Y-113849534D01*
X67206309Y-113693775D01*
X67206310Y-113693773D01*
X67338773Y-113561310D01*
X67494533Y-113457235D01*
X67494534Y-113457234D01*
X67667605Y-113385546D01*
X67851333Y-113349000D01*
X68038667Y-113349000D01*
X68222395Y-113385546D01*
X68222395Y-113385546D01*
G37*
G36*
X103782395Y-113385546D02*
G01*
X103955466Y-113457234D01*
X103955467Y-113457235D01*
X104111227Y-113561310D01*
X104243690Y-113693773D01*
X104243691Y-113693775D01*
X104347766Y-113849534D01*
X104419454Y-114022605D01*
X104456000Y-114206333D01*
X104456000Y-114393667D01*
X104419454Y-114577395D01*
X104347766Y-114750466D01*
X104347765Y-114750467D01*
X104243690Y-114906227D01*
X104111227Y-115038690D01*
X104032818Y-115091081D01*
X103955466Y-115142766D01*
X103782395Y-115214454D01*
X103598667Y-115251000D01*
X103411333Y-115251000D01*
X103227605Y-115214454D01*
X103054534Y-115142766D01*
X102977182Y-115091081D01*
X102898773Y-115038690D01*
X102766310Y-114906227D01*
X102662235Y-114750467D01*
X102662234Y-114750466D01*
X102590546Y-114577395D01*
X102554000Y-114393667D01*
X102554000Y-114206333D01*
X102590546Y-114022605D01*
X102662234Y-113849534D01*
X102766309Y-113693775D01*
X102766310Y-113693773D01*
X102898773Y-113561310D01*
X103054533Y-113457235D01*
X103054534Y-113457234D01*
X103227605Y-113385546D01*
X103411333Y-113349000D01*
X103598667Y-113349000D01*
X103782395Y-113385546D01*
X103782395Y-113385546D01*
G37*
G36*
X86002395Y-113385546D02*
G01*
X86175466Y-113457234D01*
X86175467Y-113457235D01*
X86331227Y-113561310D01*
X86463690Y-113693773D01*
X86463691Y-113693775D01*
X86567766Y-113849534D01*
X86639454Y-114022605D01*
X86676000Y-114206333D01*
X86676000Y-114393667D01*
X86639454Y-114577395D01*
X86567766Y-114750466D01*
X86567765Y-114750467D01*
X86463690Y-114906227D01*
X86331227Y-115038690D01*
X86252818Y-115091081D01*
X86175466Y-115142766D01*
X86002395Y-115214454D01*
X85818667Y-115251000D01*
X85631333Y-115251000D01*
X85447605Y-115214454D01*
X85274534Y-115142766D01*
X85197182Y-115091081D01*
X85118773Y-115038690D01*
X84986310Y-114906227D01*
X84882235Y-114750467D01*
X84882234Y-114750466D01*
X84810546Y-114577395D01*
X84774000Y-114393667D01*
X84774000Y-114206333D01*
X84810546Y-114022605D01*
X84882234Y-113849534D01*
X84986309Y-113693775D01*
X84986310Y-113693773D01*
X85118773Y-113561310D01*
X85274533Y-113457235D01*
X85274534Y-113457234D01*
X85447605Y-113385546D01*
X85631333Y-113349000D01*
X85818667Y-113349000D01*
X86002395Y-113385546D01*
X86002395Y-113385546D01*
G37*
G36*
X99279059Y-99607860D02*
G01*
X99339294Y-99632810D01*
X99415732Y-99664472D01*
X99538735Y-99746660D01*
X99643340Y-99851265D01*
X99725528Y-99974268D01*
X99782140Y-100110941D01*
X99811000Y-100256033D01*
X99811000Y-100403967D01*
X99782140Y-100549059D01*
X99725528Y-100685732D01*
X99643340Y-100808735D01*
X99538735Y-100913340D01*
X99415732Y-100995528D01*
X99415731Y-100995529D01*
X99415730Y-100995529D01*
X99279059Y-101052140D01*
X99133968Y-101081000D01*
X98986032Y-101081000D01*
X98840941Y-101052140D01*
X98704270Y-100995529D01*
X98704269Y-100995529D01*
X98704268Y-100995528D01*
X98581265Y-100913340D01*
X98476660Y-100808735D01*
X98394472Y-100685732D01*
X98337860Y-100549059D01*
X98309000Y-100403967D01*
X98309000Y-100256033D01*
X98337860Y-100110941D01*
X98394472Y-99974268D01*
X98476660Y-99851265D01*
X98581265Y-99746660D01*
X98704268Y-99664472D01*
X98780707Y-99632810D01*
X98840941Y-99607860D01*
X98986032Y-99579000D01*
X99133968Y-99579000D01*
X99279059Y-99607860D01*
X99279059Y-99607860D01*
G37*
G36*
X103089059Y-99607860D02*
G01*
X103149294Y-99632810D01*
X103225732Y-99664472D01*
X103348735Y-99746660D01*
X103453340Y-99851265D01*
X103535528Y-99974268D01*
X103592140Y-100110941D01*
X103621000Y-100256033D01*
X103621000Y-100403967D01*
X103592140Y-100549059D01*
X103535528Y-100685732D01*
X103453340Y-100808735D01*
X103348735Y-100913340D01*
X103225732Y-100995528D01*
X103225731Y-100995529D01*
X103225730Y-100995529D01*
X103089059Y-101052140D01*
X102943968Y-101081000D01*
X102796032Y-101081000D01*
X102650941Y-101052140D01*
X102514270Y-100995529D01*
X102514269Y-100995529D01*
X102514268Y-100995528D01*
X102391265Y-100913340D01*
X102286660Y-100808735D01*
X102204472Y-100685732D01*
X102147860Y-100549059D01*
X102119000Y-100403967D01*
X102119000Y-100256033D01*
X102147860Y-100110941D01*
X102204472Y-99974268D01*
X102286660Y-99851265D01*
X102391265Y-99746660D01*
X102514268Y-99664472D01*
X102590707Y-99632810D01*
X102650941Y-99607860D01*
X102796032Y-99579000D01*
X102943968Y-99579000D01*
X103089059Y-99607860D01*
X103089059Y-99607860D01*
G37*
G36*
X95469059Y-99607860D02*
G01*
X95529294Y-99632810D01*
X95605732Y-99664472D01*
X95728735Y-99746660D01*
X95833340Y-99851265D01*
X95915528Y-99974268D01*
X95972140Y-100110941D01*
X96001000Y-100256033D01*
X96001000Y-100403967D01*
X95972140Y-100549059D01*
X95915528Y-100685732D01*
X95833340Y-100808735D01*
X95728735Y-100913340D01*
X95605732Y-100995528D01*
X95605731Y-100995529D01*
X95605730Y-100995529D01*
X95469059Y-101052140D01*
X95323968Y-101081000D01*
X95176032Y-101081000D01*
X95030941Y-101052140D01*
X94894270Y-100995529D01*
X94894269Y-100995529D01*
X94894268Y-100995528D01*
X94771265Y-100913340D01*
X94666660Y-100808735D01*
X94584472Y-100685732D01*
X94527860Y-100549059D01*
X94499000Y-100403967D01*
X94499000Y-100256033D01*
X94527860Y-100110941D01*
X94584472Y-99974268D01*
X94666660Y-99851265D01*
X94771265Y-99746660D01*
X94894268Y-99664472D01*
X94970707Y-99632810D01*
X95030941Y-99607860D01*
X95176032Y-99579000D01*
X95323968Y-99579000D01*
X95469059Y-99607860D01*
X95469059Y-99607860D01*
G37*
G36*
X91659059Y-99607860D02*
G01*
X91719294Y-99632810D01*
X91795732Y-99664472D01*
X91918735Y-99746660D01*
X92023340Y-99851265D01*
X92105528Y-99974268D01*
X92162140Y-100110941D01*
X92191000Y-100256033D01*
X92191000Y-100403967D01*
X92162140Y-100549059D01*
X92105528Y-100685732D01*
X92023340Y-100808735D01*
X91918735Y-100913340D01*
X91795732Y-100995528D01*
X91795731Y-100995529D01*
X91795730Y-100995529D01*
X91659059Y-101052140D01*
X91513968Y-101081000D01*
X91366032Y-101081000D01*
X91220941Y-101052140D01*
X91084270Y-100995529D01*
X91084269Y-100995529D01*
X91084268Y-100995528D01*
X90961265Y-100913340D01*
X90856660Y-100808735D01*
X90774472Y-100685732D01*
X90717860Y-100549059D01*
X90689000Y-100403967D01*
X90689000Y-100256033D01*
X90717860Y-100110941D01*
X90774472Y-99974268D01*
X90856660Y-99851265D01*
X90961265Y-99746660D01*
X91084268Y-99664472D01*
X91160707Y-99632810D01*
X91220941Y-99607860D01*
X91366032Y-99579000D01*
X91513968Y-99579000D01*
X91659059Y-99607860D01*
X91659059Y-99607860D01*
G37*
G36*
X87703665Y-99582622D02*
G01*
X87777222Y-99589867D01*
X87918786Y-99632810D01*
X88049252Y-99702546D01*
X88079040Y-99726992D01*
X88163607Y-99796393D01*
X88233008Y-99880960D01*
X88257454Y-99910748D01*
X88327190Y-100041214D01*
X88370133Y-100182778D01*
X88384633Y-100330000D01*
X88370133Y-100477222D01*
X88327190Y-100618786D01*
X88257454Y-100749252D01*
X88233008Y-100779040D01*
X88163607Y-100863607D01*
X88103004Y-100913341D01*
X88049252Y-100957454D01*
X87918786Y-101027190D01*
X87777222Y-101070133D01*
X87703665Y-101077378D01*
X87666888Y-101081000D01*
X87593112Y-101081000D01*
X87556335Y-101077378D01*
X87482778Y-101070133D01*
X87341214Y-101027190D01*
X87210748Y-100957454D01*
X87156996Y-100913341D01*
X87096393Y-100863607D01*
X87026992Y-100779040D01*
X87002546Y-100749252D01*
X86932810Y-100618786D01*
X86889867Y-100477222D01*
X86875367Y-100330000D01*
X86889867Y-100182778D01*
X86932810Y-100041214D01*
X87002546Y-99910748D01*
X87026992Y-99880960D01*
X87096393Y-99796393D01*
X87180960Y-99726992D01*
X87210748Y-99702546D01*
X87341214Y-99632810D01*
X87482778Y-99589867D01*
X87556335Y-99582622D01*
X87593112Y-99579000D01*
X87666888Y-99579000D01*
X87703665Y-99582622D01*
X87703665Y-99582622D01*
G37*
G36*
X71406564Y-95763389D02*
G01*
X71597833Y-95842615D01*
X71597835Y-95842616D01*
X71669027Y-95890185D01*
X71769973Y-95957635D01*
X71916365Y-96104027D01*
X72031385Y-96276167D01*
X72110611Y-96467436D01*
X72151000Y-96670484D01*
X72151000Y-96877516D01*
X72110611Y-97080564D01*
X72031385Y-97271833D01*
X72031384Y-97271835D01*
X71916365Y-97443973D01*
X71769973Y-97590365D01*
X71597835Y-97705384D01*
X71597834Y-97705385D01*
X71597833Y-97705385D01*
X71406564Y-97784611D01*
X71203516Y-97825000D01*
X70996484Y-97825000D01*
X70793436Y-97784611D01*
X70602167Y-97705385D01*
X70602166Y-97705385D01*
X70602165Y-97705384D01*
X70430027Y-97590365D01*
X70283635Y-97443973D01*
X70168616Y-97271835D01*
X70168615Y-97271833D01*
X70089389Y-97080564D01*
X70049000Y-96877516D01*
X70049000Y-96670484D01*
X70089389Y-96467436D01*
X70168615Y-96276167D01*
X70283635Y-96104027D01*
X70430027Y-95957635D01*
X70530973Y-95890185D01*
X70602165Y-95842616D01*
X70602167Y-95842615D01*
X70793436Y-95763389D01*
X70996484Y-95723000D01*
X71203516Y-95723000D01*
X71406564Y-95763389D01*
X71406564Y-95763389D01*
G37*
G36*
X64551000Y-97825000D02*
G01*
X62449000Y-97825000D01*
X62449000Y-95723000D01*
X64551000Y-95723000D01*
X64551000Y-97825000D01*
X64551000Y-97825000D01*
G37*
G36*
X123300442Y-94355518D02*
G01*
X123366627Y-94362037D01*
X123536466Y-94413557D01*
X123692991Y-94497222D01*
X123728729Y-94526552D01*
X123830186Y-94609814D01*
X123913448Y-94711271D01*
X123942778Y-94747009D01*
X124026443Y-94903534D01*
X124077963Y-95073373D01*
X124095359Y-95250000D01*
X124077963Y-95426627D01*
X124026443Y-95596466D01*
X123942778Y-95752991D01*
X123913448Y-95788729D01*
X123830186Y-95890186D01*
X123747998Y-95957635D01*
X123692991Y-96002778D01*
X123536466Y-96086443D01*
X123366627Y-96137963D01*
X123300443Y-96144481D01*
X123234260Y-96151000D01*
X123145740Y-96151000D01*
X123079558Y-96144482D01*
X123013373Y-96137963D01*
X122843534Y-96086443D01*
X122687009Y-96002778D01*
X122632002Y-95957635D01*
X122549814Y-95890186D01*
X122466552Y-95788729D01*
X122437222Y-95752991D01*
X122353557Y-95596466D01*
X122302037Y-95426627D01*
X122284641Y-95250000D01*
X122302037Y-95073373D01*
X122353557Y-94903534D01*
X122437222Y-94747009D01*
X122466552Y-94711271D01*
X122549814Y-94609814D01*
X122651271Y-94526552D01*
X122687009Y-94497222D01*
X122843534Y-94413557D01*
X123013373Y-94362037D01*
X123079557Y-94355519D01*
X123145740Y-94349000D01*
X123234260Y-94349000D01*
X123300442Y-94355518D01*
X123300442Y-94355518D01*
G37*
G36*
X108060442Y-94355518D02*
G01*
X108126627Y-94362037D01*
X108296466Y-94413557D01*
X108452991Y-94497222D01*
X108488729Y-94526552D01*
X108590186Y-94609814D01*
X108673448Y-94711271D01*
X108702778Y-94747009D01*
X108786443Y-94903534D01*
X108837963Y-95073373D01*
X108855359Y-95250000D01*
X108837963Y-95426627D01*
X108786443Y-95596466D01*
X108702778Y-95752991D01*
X108673448Y-95788729D01*
X108590186Y-95890186D01*
X108507998Y-95957635D01*
X108452991Y-96002778D01*
X108296466Y-96086443D01*
X108126627Y-96137963D01*
X108060443Y-96144481D01*
X107994260Y-96151000D01*
X107905740Y-96151000D01*
X107839558Y-96144482D01*
X107773373Y-96137963D01*
X107603534Y-96086443D01*
X107447009Y-96002778D01*
X107392002Y-95957635D01*
X107309814Y-95890186D01*
X107226552Y-95788729D01*
X107197222Y-95752991D01*
X107113557Y-95596466D01*
X107062037Y-95426627D01*
X107044641Y-95250000D01*
X107062037Y-95073373D01*
X107113557Y-94903534D01*
X107197222Y-94747009D01*
X107226552Y-94711271D01*
X107309814Y-94609814D01*
X107411271Y-94526552D01*
X107447009Y-94497222D01*
X107603534Y-94413557D01*
X107773373Y-94362037D01*
X107839558Y-94355518D01*
X107905740Y-94349000D01*
X107994260Y-94349000D01*
X108060442Y-94355518D01*
X108060442Y-94355518D01*
G37*
G36*
X123300442Y-91815518D02*
G01*
X123366627Y-91822037D01*
X123536466Y-91873557D01*
X123692991Y-91957222D01*
X123728729Y-91986552D01*
X123830186Y-92069814D01*
X123913448Y-92171271D01*
X123942778Y-92207009D01*
X124026443Y-92363534D01*
X124077963Y-92533373D01*
X124095359Y-92710000D01*
X124077963Y-92886627D01*
X124026443Y-93056466D01*
X123942778Y-93212991D01*
X123917653Y-93243606D01*
X123830186Y-93350186D01*
X123760725Y-93407190D01*
X123692991Y-93462778D01*
X123536466Y-93546443D01*
X123366627Y-93597963D01*
X123300443Y-93604481D01*
X123234260Y-93611000D01*
X123145740Y-93611000D01*
X123079557Y-93604481D01*
X123013373Y-93597963D01*
X122843534Y-93546443D01*
X122687009Y-93462778D01*
X122619275Y-93407190D01*
X122549814Y-93350186D01*
X122462347Y-93243606D01*
X122437222Y-93212991D01*
X122353557Y-93056466D01*
X122302037Y-92886627D01*
X122284641Y-92710000D01*
X122302037Y-92533373D01*
X122353557Y-92363534D01*
X122437222Y-92207009D01*
X122466552Y-92171271D01*
X122549814Y-92069814D01*
X122651271Y-91986552D01*
X122687009Y-91957222D01*
X122843534Y-91873557D01*
X123013373Y-91822037D01*
X123079558Y-91815518D01*
X123145740Y-91809000D01*
X123234260Y-91809000D01*
X123300442Y-91815518D01*
X123300442Y-91815518D01*
G37*
G36*
X108060442Y-91815518D02*
G01*
X108126627Y-91822037D01*
X108296466Y-91873557D01*
X108452991Y-91957222D01*
X108488729Y-91986552D01*
X108590186Y-92069814D01*
X108673448Y-92171271D01*
X108702778Y-92207009D01*
X108786443Y-92363534D01*
X108837963Y-92533373D01*
X108855359Y-92710000D01*
X108837963Y-92886627D01*
X108786443Y-93056466D01*
X108702778Y-93212991D01*
X108677653Y-93243606D01*
X108590186Y-93350186D01*
X108520725Y-93407190D01*
X108452991Y-93462778D01*
X108296466Y-93546443D01*
X108126627Y-93597963D01*
X108060443Y-93604481D01*
X107994260Y-93611000D01*
X107905740Y-93611000D01*
X107839557Y-93604481D01*
X107773373Y-93597963D01*
X107603534Y-93546443D01*
X107447009Y-93462778D01*
X107379275Y-93407190D01*
X107309814Y-93350186D01*
X107222347Y-93243606D01*
X107197222Y-93212991D01*
X107113557Y-93056466D01*
X107062037Y-92886627D01*
X107044641Y-92710000D01*
X107062037Y-92533373D01*
X107113557Y-92363534D01*
X107197222Y-92207009D01*
X107226552Y-92171271D01*
X107309814Y-92069814D01*
X107411271Y-91986552D01*
X107447009Y-91957222D01*
X107603534Y-91873557D01*
X107773373Y-91822037D01*
X107839558Y-91815518D01*
X107905740Y-91809000D01*
X107994260Y-91809000D01*
X108060442Y-91815518D01*
X108060442Y-91815518D01*
G37*
G36*
X102943665Y-91962622D02*
G01*
X103017222Y-91969867D01*
X103158786Y-92012810D01*
X103289252Y-92082546D01*
X103319040Y-92106992D01*
X103403607Y-92176393D01*
X103473008Y-92260960D01*
X103497454Y-92290748D01*
X103567190Y-92421214D01*
X103610133Y-92562778D01*
X103624633Y-92710000D01*
X103610133Y-92857222D01*
X103567190Y-92998786D01*
X103497454Y-93129252D01*
X103473008Y-93159040D01*
X103403607Y-93243607D01*
X103343004Y-93293341D01*
X103289252Y-93337454D01*
X103158786Y-93407190D01*
X103017222Y-93450133D01*
X102943665Y-93457378D01*
X102906888Y-93461000D01*
X102833112Y-93461000D01*
X102796335Y-93457378D01*
X102722778Y-93450133D01*
X102581214Y-93407190D01*
X102450748Y-93337454D01*
X102396996Y-93293341D01*
X102336393Y-93243607D01*
X102266992Y-93159040D01*
X102242546Y-93129252D01*
X102172810Y-92998786D01*
X102129867Y-92857222D01*
X102115367Y-92710000D01*
X102129867Y-92562778D01*
X102172810Y-92421214D01*
X102242546Y-92290748D01*
X102266992Y-92260960D01*
X102336393Y-92176393D01*
X102420960Y-92106992D01*
X102450748Y-92082546D01*
X102581214Y-92012810D01*
X102722778Y-91969867D01*
X102796335Y-91962622D01*
X102833112Y-91959000D01*
X102906888Y-91959000D01*
X102943665Y-91962622D01*
X102943665Y-91962622D01*
G37*
G36*
X99133665Y-91962622D02*
G01*
X99207222Y-91969867D01*
X99348786Y-92012810D01*
X99479252Y-92082546D01*
X99509040Y-92106992D01*
X99593607Y-92176393D01*
X99663008Y-92260960D01*
X99687454Y-92290748D01*
X99757190Y-92421214D01*
X99800133Y-92562778D01*
X99814633Y-92710000D01*
X99800133Y-92857222D01*
X99757190Y-92998786D01*
X99687454Y-93129252D01*
X99663008Y-93159040D01*
X99593607Y-93243607D01*
X99533004Y-93293341D01*
X99479252Y-93337454D01*
X99348786Y-93407190D01*
X99207222Y-93450133D01*
X99133665Y-93457378D01*
X99096888Y-93461000D01*
X99023112Y-93461000D01*
X98986335Y-93457378D01*
X98912778Y-93450133D01*
X98771214Y-93407190D01*
X98640748Y-93337454D01*
X98586996Y-93293341D01*
X98526393Y-93243607D01*
X98456992Y-93159040D01*
X98432546Y-93129252D01*
X98362810Y-92998786D01*
X98319867Y-92857222D01*
X98305367Y-92710000D01*
X98319867Y-92562778D01*
X98362810Y-92421214D01*
X98432546Y-92290748D01*
X98456992Y-92260960D01*
X98526393Y-92176393D01*
X98610960Y-92106992D01*
X98640748Y-92082546D01*
X98771214Y-92012810D01*
X98912778Y-91969867D01*
X98986335Y-91962622D01*
X99023112Y-91959000D01*
X99096888Y-91959000D01*
X99133665Y-91962622D01*
X99133665Y-91962622D01*
G37*
G36*
X91513665Y-91962622D02*
G01*
X91587222Y-91969867D01*
X91728786Y-92012810D01*
X91859252Y-92082546D01*
X91889040Y-92106992D01*
X91973607Y-92176393D01*
X92043008Y-92260960D01*
X92067454Y-92290748D01*
X92137190Y-92421214D01*
X92180133Y-92562778D01*
X92194633Y-92710000D01*
X92180133Y-92857222D01*
X92137190Y-92998786D01*
X92067454Y-93129252D01*
X92043008Y-93159040D01*
X91973607Y-93243607D01*
X91913004Y-93293341D01*
X91859252Y-93337454D01*
X91728786Y-93407190D01*
X91587222Y-93450133D01*
X91513665Y-93457378D01*
X91476888Y-93461000D01*
X91403112Y-93461000D01*
X91366335Y-93457378D01*
X91292778Y-93450133D01*
X91151214Y-93407190D01*
X91020748Y-93337454D01*
X90966996Y-93293341D01*
X90906393Y-93243607D01*
X90836992Y-93159040D01*
X90812546Y-93129252D01*
X90742810Y-92998786D01*
X90699867Y-92857222D01*
X90685367Y-92710000D01*
X90699867Y-92562778D01*
X90742810Y-92421214D01*
X90812546Y-92290748D01*
X90836992Y-92260960D01*
X90906393Y-92176393D01*
X90990960Y-92106992D01*
X91020748Y-92082546D01*
X91151214Y-92012810D01*
X91292778Y-91969867D01*
X91366335Y-91962622D01*
X91403112Y-91959000D01*
X91476888Y-91959000D01*
X91513665Y-91962622D01*
X91513665Y-91962622D01*
G37*
G36*
X87849059Y-91987860D02*
G01*
X87909294Y-92012810D01*
X87985732Y-92044472D01*
X88108735Y-92126660D01*
X88213340Y-92231265D01*
X88295528Y-92354268D01*
X88295529Y-92354270D01*
X88352140Y-92490941D01*
X88381000Y-92636032D01*
X88381000Y-92783968D01*
X88360580Y-92886627D01*
X88352140Y-92929059D01*
X88295528Y-93065732D01*
X88213340Y-93188735D01*
X88108735Y-93293340D01*
X87985732Y-93375528D01*
X87985731Y-93375529D01*
X87985730Y-93375529D01*
X87849059Y-93432140D01*
X87703968Y-93461000D01*
X87556032Y-93461000D01*
X87410941Y-93432140D01*
X87274270Y-93375529D01*
X87274269Y-93375529D01*
X87274268Y-93375528D01*
X87151265Y-93293340D01*
X87046660Y-93188735D01*
X86964472Y-93065732D01*
X86907860Y-92929059D01*
X86899420Y-92886627D01*
X86879000Y-92783968D01*
X86879000Y-92636032D01*
X86907860Y-92490941D01*
X86964471Y-92354270D01*
X86964472Y-92354268D01*
X87046660Y-92231265D01*
X87151265Y-92126660D01*
X87274268Y-92044472D01*
X87350707Y-92012810D01*
X87410941Y-91987860D01*
X87556032Y-91959000D01*
X87703968Y-91959000D01*
X87849059Y-91987860D01*
X87849059Y-91987860D01*
G37*
G36*
X95323665Y-91962622D02*
G01*
X95397222Y-91969867D01*
X95538786Y-92012810D01*
X95669252Y-92082546D01*
X95699040Y-92106992D01*
X95783607Y-92176393D01*
X95853008Y-92260960D01*
X95877454Y-92290748D01*
X95947190Y-92421214D01*
X95990133Y-92562778D01*
X96004633Y-92710000D01*
X95990133Y-92857222D01*
X95947190Y-92998786D01*
X95877454Y-93129252D01*
X95853008Y-93159040D01*
X95783607Y-93243607D01*
X95723004Y-93293341D01*
X95669252Y-93337454D01*
X95538786Y-93407190D01*
X95397222Y-93450133D01*
X95323665Y-93457378D01*
X95286888Y-93461000D01*
X95213112Y-93461000D01*
X95176335Y-93457378D01*
X95102778Y-93450133D01*
X94961214Y-93407190D01*
X94830748Y-93337454D01*
X94776996Y-93293341D01*
X94716393Y-93243607D01*
X94646992Y-93159040D01*
X94622546Y-93129252D01*
X94552810Y-92998786D01*
X94509867Y-92857222D01*
X94495367Y-92710000D01*
X94509867Y-92562778D01*
X94552810Y-92421214D01*
X94622546Y-92290748D01*
X94646992Y-92260960D01*
X94716393Y-92176393D01*
X94800960Y-92106992D01*
X94830748Y-92082546D01*
X94961214Y-92012810D01*
X95102778Y-91969867D01*
X95176335Y-91962622D01*
X95213112Y-91959000D01*
X95286888Y-91959000D01*
X95323665Y-91962622D01*
X95323665Y-91962622D01*
G37*
G36*
X123300443Y-89275519D02*
G01*
X123366627Y-89282037D01*
X123536466Y-89333557D01*
X123692991Y-89417222D01*
X123728729Y-89446552D01*
X123830186Y-89529814D01*
X123913448Y-89631271D01*
X123942778Y-89667009D01*
X124026443Y-89823534D01*
X124077963Y-89993373D01*
X124095359Y-90170000D01*
X124077963Y-90346627D01*
X124026443Y-90516466D01*
X123942778Y-90672991D01*
X123913448Y-90708729D01*
X123830186Y-90810186D01*
X123728729Y-90893448D01*
X123692991Y-90922778D01*
X123536466Y-91006443D01*
X123366627Y-91057963D01*
X123300442Y-91064482D01*
X123234260Y-91071000D01*
X123145740Y-91071000D01*
X123079558Y-91064482D01*
X123013373Y-91057963D01*
X122843534Y-91006443D01*
X122687009Y-90922778D01*
X122651271Y-90893448D01*
X122549814Y-90810186D01*
X122466552Y-90708729D01*
X122437222Y-90672991D01*
X122353557Y-90516466D01*
X122302037Y-90346627D01*
X122284641Y-90170000D01*
X122302037Y-89993373D01*
X122353557Y-89823534D01*
X122437222Y-89667009D01*
X122466552Y-89631271D01*
X122549814Y-89529814D01*
X122651271Y-89446552D01*
X122687009Y-89417222D01*
X122843534Y-89333557D01*
X123013373Y-89282037D01*
X123079557Y-89275519D01*
X123145740Y-89269000D01*
X123234260Y-89269000D01*
X123300443Y-89275519D01*
X123300443Y-89275519D01*
G37*
G36*
X108060443Y-89275519D02*
G01*
X108126627Y-89282037D01*
X108296466Y-89333557D01*
X108452991Y-89417222D01*
X108488729Y-89446552D01*
X108590186Y-89529814D01*
X108673448Y-89631271D01*
X108702778Y-89667009D01*
X108786443Y-89823534D01*
X108837963Y-89993373D01*
X108855359Y-90170000D01*
X108837963Y-90346627D01*
X108786443Y-90516466D01*
X108702778Y-90672991D01*
X108673448Y-90708729D01*
X108590186Y-90810186D01*
X108488729Y-90893448D01*
X108452991Y-90922778D01*
X108296466Y-91006443D01*
X108126627Y-91057963D01*
X108060442Y-91064482D01*
X107994260Y-91071000D01*
X107905740Y-91071000D01*
X107839558Y-91064482D01*
X107773373Y-91057963D01*
X107603534Y-91006443D01*
X107447009Y-90922778D01*
X107411271Y-90893448D01*
X107309814Y-90810186D01*
X107226552Y-90708729D01*
X107197222Y-90672991D01*
X107113557Y-90516466D01*
X107062037Y-90346627D01*
X107044641Y-90170000D01*
X107062037Y-89993373D01*
X107113557Y-89823534D01*
X107197222Y-89667009D01*
X107226552Y-89631271D01*
X107309814Y-89529814D01*
X107411271Y-89446552D01*
X107447009Y-89417222D01*
X107603534Y-89333557D01*
X107773373Y-89282037D01*
X107839557Y-89275519D01*
X107905740Y-89269000D01*
X107994260Y-89269000D01*
X108060443Y-89275519D01*
X108060443Y-89275519D01*
G37*
G36*
X64351000Y-89116000D02*
G01*
X62649000Y-89116000D01*
X62649000Y-87414000D01*
X64351000Y-87414000D01*
X64351000Y-89116000D01*
X64351000Y-89116000D01*
G37*
G36*
X71286823Y-87426313D02*
G01*
X71447242Y-87474976D01*
X71579906Y-87545886D01*
X71595078Y-87553996D01*
X71724659Y-87660341D01*
X71831004Y-87789922D01*
X71831005Y-87789924D01*
X71910024Y-87937758D01*
X71958687Y-88098177D01*
X71975117Y-88265000D01*
X71958687Y-88431823D01*
X71910024Y-88592242D01*
X71839114Y-88724906D01*
X71831004Y-88740078D01*
X71724659Y-88869659D01*
X71595078Y-88976004D01*
X71595076Y-88976005D01*
X71447242Y-89055024D01*
X71286823Y-89103687D01*
X71161804Y-89116000D01*
X71078196Y-89116000D01*
X70953177Y-89103687D01*
X70792758Y-89055024D01*
X70644924Y-88976005D01*
X70644922Y-88976004D01*
X70515341Y-88869659D01*
X70408996Y-88740078D01*
X70400886Y-88724906D01*
X70329976Y-88592242D01*
X70281313Y-88431823D01*
X70264883Y-88265000D01*
X70281313Y-88098177D01*
X70329976Y-87937758D01*
X70408995Y-87789924D01*
X70408996Y-87789922D01*
X70515341Y-87660341D01*
X70644922Y-87553996D01*
X70660094Y-87545886D01*
X70792758Y-87474976D01*
X70953177Y-87426313D01*
X71078196Y-87414000D01*
X71161804Y-87414000D01*
X71286823Y-87426313D01*
X71286823Y-87426313D01*
G37*
G36*
X95556564Y-86539389D02*
G01*
X95747833Y-86618615D01*
X95747835Y-86618616D01*
X95913036Y-86729000D01*
X95919973Y-86733635D01*
X96066365Y-86880027D01*
X96181385Y-87052167D01*
X96260611Y-87243436D01*
X96301000Y-87446484D01*
X96301000Y-87653516D01*
X96260611Y-87856564D01*
X96226979Y-87937758D01*
X96181384Y-88047835D01*
X96066365Y-88219973D01*
X95919973Y-88366365D01*
X95747835Y-88481384D01*
X95747834Y-88481385D01*
X95747833Y-88481385D01*
X95556564Y-88560611D01*
X95353516Y-88601000D01*
X95146484Y-88601000D01*
X94943436Y-88560611D01*
X94752167Y-88481385D01*
X94752166Y-88481385D01*
X94752165Y-88481384D01*
X94580027Y-88366365D01*
X94433635Y-88219973D01*
X94318616Y-88047835D01*
X94273021Y-87937758D01*
X94239389Y-87856564D01*
X94199000Y-87653516D01*
X94199000Y-87446484D01*
X94239389Y-87243436D01*
X94318615Y-87052167D01*
X94433635Y-86880027D01*
X94580027Y-86733635D01*
X94586964Y-86729000D01*
X94752165Y-86618616D01*
X94752167Y-86618615D01*
X94943436Y-86539389D01*
X95146484Y-86499000D01*
X95353516Y-86499000D01*
X95556564Y-86539389D01*
X95556564Y-86539389D01*
G37*
G36*
X108041319Y-86733635D02*
G01*
X108126627Y-86742037D01*
X108296466Y-86793557D01*
X108452991Y-86877222D01*
X108488729Y-86906552D01*
X108590186Y-86989814D01*
X108673448Y-87091271D01*
X108702778Y-87127009D01*
X108702779Y-87127011D01*
X108765010Y-87243435D01*
X108786443Y-87283534D01*
X108837963Y-87453373D01*
X108855359Y-87630000D01*
X108837963Y-87806627D01*
X108786443Y-87976466D01*
X108702778Y-88132991D01*
X108673448Y-88168729D01*
X108590186Y-88270186D01*
X108488729Y-88353448D01*
X108452991Y-88382778D01*
X108296466Y-88466443D01*
X108126627Y-88517963D01*
X108060442Y-88524482D01*
X107994260Y-88531000D01*
X107905740Y-88531000D01*
X107839558Y-88524482D01*
X107773373Y-88517963D01*
X107603534Y-88466443D01*
X107447009Y-88382778D01*
X107411271Y-88353448D01*
X107309814Y-88270186D01*
X107226552Y-88168729D01*
X107197222Y-88132991D01*
X107113557Y-87976466D01*
X107062037Y-87806627D01*
X107044641Y-87630000D01*
X107062037Y-87453373D01*
X107113557Y-87283534D01*
X107134991Y-87243435D01*
X107197221Y-87127011D01*
X107197222Y-87127009D01*
X107226552Y-87091271D01*
X107309814Y-86989814D01*
X107411271Y-86906552D01*
X107447009Y-86877222D01*
X107603534Y-86793557D01*
X107773373Y-86742037D01*
X107858681Y-86733635D01*
X107905740Y-86729000D01*
X107994260Y-86729000D01*
X108041319Y-86733635D01*
X108041319Y-86733635D01*
G37*
G36*
X123281319Y-86733635D02*
G01*
X123366627Y-86742037D01*
X123536466Y-86793557D01*
X123692991Y-86877222D01*
X123728729Y-86906552D01*
X123830186Y-86989814D01*
X123913448Y-87091271D01*
X123942778Y-87127009D01*
X123942779Y-87127011D01*
X124005010Y-87243435D01*
X124026443Y-87283534D01*
X124077963Y-87453373D01*
X124095359Y-87630000D01*
X124077963Y-87806627D01*
X124026443Y-87976466D01*
X123942778Y-88132991D01*
X123913448Y-88168729D01*
X123830186Y-88270186D01*
X123728729Y-88353448D01*
X123692991Y-88382778D01*
X123536466Y-88466443D01*
X123366627Y-88517963D01*
X123300442Y-88524482D01*
X123234260Y-88531000D01*
X123145740Y-88531000D01*
X123079558Y-88524482D01*
X123013373Y-88517963D01*
X122843534Y-88466443D01*
X122687009Y-88382778D01*
X122651271Y-88353448D01*
X122549814Y-88270186D01*
X122466552Y-88168729D01*
X122437222Y-88132991D01*
X122353557Y-87976466D01*
X122302037Y-87806627D01*
X122284641Y-87630000D01*
X122302037Y-87453373D01*
X122353557Y-87283534D01*
X122374991Y-87243435D01*
X122437221Y-87127011D01*
X122437222Y-87127009D01*
X122466552Y-87091271D01*
X122549814Y-86989814D01*
X122651271Y-86906552D01*
X122687009Y-86877222D01*
X122843534Y-86793557D01*
X123013373Y-86742037D01*
X123098681Y-86733635D01*
X123145740Y-86729000D01*
X123234260Y-86729000D01*
X123281319Y-86733635D01*
X123281319Y-86733635D01*
G37*
G36*
X91071000Y-85991000D02*
G01*
X89269000Y-85991000D01*
X89269000Y-84189000D01*
X91071000Y-84189000D01*
X91071000Y-85991000D01*
X91071000Y-85991000D01*
G37*
G36*
X108060442Y-84195518D02*
G01*
X108126627Y-84202037D01*
X108296466Y-84253557D01*
X108452991Y-84337222D01*
X108488729Y-84366552D01*
X108590186Y-84449814D01*
X108673448Y-84551271D01*
X108702778Y-84587009D01*
X108786443Y-84743534D01*
X108837963Y-84913373D01*
X108855359Y-85090000D01*
X108837963Y-85266627D01*
X108786443Y-85436466D01*
X108702778Y-85592991D01*
X108673448Y-85628729D01*
X108590186Y-85730186D01*
X108488729Y-85813448D01*
X108452991Y-85842778D01*
X108296466Y-85926443D01*
X108126627Y-85977963D01*
X108060442Y-85984482D01*
X107994260Y-85991000D01*
X107905740Y-85991000D01*
X107839558Y-85984482D01*
X107773373Y-85977963D01*
X107603534Y-85926443D01*
X107447009Y-85842778D01*
X107411271Y-85813448D01*
X107309814Y-85730186D01*
X107226552Y-85628729D01*
X107197222Y-85592991D01*
X107113557Y-85436466D01*
X107062037Y-85266627D01*
X107044641Y-85090000D01*
X107062037Y-84913373D01*
X107113557Y-84743534D01*
X107197222Y-84587009D01*
X107226552Y-84551271D01*
X107309814Y-84449814D01*
X107411271Y-84366552D01*
X107447009Y-84337222D01*
X107603534Y-84253557D01*
X107773373Y-84202037D01*
X107839558Y-84195518D01*
X107905740Y-84189000D01*
X107994260Y-84189000D01*
X108060442Y-84195518D01*
X108060442Y-84195518D01*
G37*
G36*
X123300442Y-84195518D02*
G01*
X123366627Y-84202037D01*
X123536466Y-84253557D01*
X123692991Y-84337222D01*
X123728729Y-84366552D01*
X123830186Y-84449814D01*
X123913448Y-84551271D01*
X123942778Y-84587009D01*
X124026443Y-84743534D01*
X124077963Y-84913373D01*
X124095359Y-85090000D01*
X124077963Y-85266627D01*
X124026443Y-85436466D01*
X123942778Y-85592991D01*
X123913448Y-85628729D01*
X123830186Y-85730186D01*
X123728729Y-85813448D01*
X123692991Y-85842778D01*
X123536466Y-85926443D01*
X123366627Y-85977963D01*
X123300442Y-85984482D01*
X123234260Y-85991000D01*
X123145740Y-85991000D01*
X123079558Y-85984482D01*
X123013373Y-85977963D01*
X122843534Y-85926443D01*
X122687009Y-85842778D01*
X122651271Y-85813448D01*
X122549814Y-85730186D01*
X122466552Y-85628729D01*
X122437222Y-85592991D01*
X122353557Y-85436466D01*
X122302037Y-85266627D01*
X122284641Y-85090000D01*
X122302037Y-84913373D01*
X122353557Y-84743534D01*
X122437222Y-84587009D01*
X122466552Y-84551271D01*
X122549814Y-84449814D01*
X122651271Y-84366552D01*
X122687009Y-84337222D01*
X122843534Y-84253557D01*
X123013373Y-84202037D01*
X123079558Y-84195518D01*
X123145740Y-84189000D01*
X123234260Y-84189000D01*
X123300442Y-84195518D01*
X123300442Y-84195518D01*
G37*
G36*
X115834840Y-82488548D02*
G01*
X115962175Y-82527175D01*
X116089507Y-82565800D01*
X116324207Y-82691250D01*
X116529923Y-82860077D01*
X116698750Y-83065793D01*
X116698751Y-83065795D01*
X116824199Y-83300491D01*
X116901452Y-83555160D01*
X116927536Y-83820000D01*
X116901452Y-84084840D01*
X116901451Y-84084842D01*
X116824200Y-84339507D01*
X116698750Y-84574207D01*
X116529923Y-84779923D01*
X116324207Y-84948750D01*
X116089507Y-85074200D01*
X115962174Y-85112826D01*
X115834840Y-85151452D01*
X115636364Y-85171000D01*
X115503636Y-85171000D01*
X115305160Y-85151452D01*
X115177826Y-85112826D01*
X115050493Y-85074200D01*
X114815793Y-84948750D01*
X114610077Y-84779923D01*
X114441250Y-84574207D01*
X114315800Y-84339507D01*
X114238549Y-84084842D01*
X114238548Y-84084840D01*
X114212464Y-83820000D01*
X114238548Y-83555160D01*
X114315801Y-83300491D01*
X114441249Y-83065795D01*
X114441250Y-83065793D01*
X114610077Y-82860077D01*
X114815793Y-82691250D01*
X115050493Y-82565800D01*
X115177825Y-82527175D01*
X115305160Y-82488548D01*
X115503636Y-82469000D01*
X115636364Y-82469000D01*
X115834840Y-82488548D01*
X115834840Y-82488548D01*
G37*
G36*
X95556564Y-81539389D02*
G01*
X95747833Y-81618615D01*
X95747835Y-81618616D01*
X95812819Y-81662037D01*
X95919973Y-81733635D01*
X96066365Y-81880027D01*
X96181385Y-82052167D01*
X96260611Y-82243436D01*
X96301000Y-82446484D01*
X96301000Y-82653516D01*
X96260611Y-82856564D01*
X96244083Y-82896466D01*
X96181384Y-83047835D01*
X96066365Y-83219973D01*
X95919973Y-83366365D01*
X95747835Y-83481384D01*
X95747834Y-83481385D01*
X95747833Y-83481385D01*
X95556564Y-83560611D01*
X95353516Y-83601000D01*
X95146484Y-83601000D01*
X94943436Y-83560611D01*
X94752167Y-83481385D01*
X94752166Y-83481385D01*
X94752165Y-83481384D01*
X94580027Y-83366365D01*
X94433635Y-83219973D01*
X94318616Y-83047835D01*
X94255917Y-82896466D01*
X94239389Y-82856564D01*
X94199000Y-82653516D01*
X94199000Y-82446484D01*
X94239389Y-82243436D01*
X94318615Y-82052167D01*
X94433635Y-81880027D01*
X94580027Y-81733635D01*
X94687181Y-81662037D01*
X94752165Y-81618616D01*
X94752167Y-81618615D01*
X94943436Y-81539389D01*
X95146484Y-81499000D01*
X95353516Y-81499000D01*
X95556564Y-81539389D01*
X95556564Y-81539389D01*
G37*
G36*
X123300443Y-81655519D02*
G01*
X123366627Y-81662037D01*
X123536466Y-81713557D01*
X123692991Y-81797222D01*
X123728729Y-81826552D01*
X123830186Y-81909814D01*
X123913448Y-82011271D01*
X123942778Y-82047009D01*
X124026443Y-82203534D01*
X124077963Y-82373373D01*
X124095359Y-82550000D01*
X124077963Y-82726627D01*
X124026443Y-82896466D01*
X123942778Y-83052991D01*
X123932270Y-83065795D01*
X123830186Y-83190186D01*
X123728729Y-83273448D01*
X123692991Y-83302778D01*
X123536466Y-83386443D01*
X123366627Y-83437963D01*
X123300443Y-83444481D01*
X123234260Y-83451000D01*
X123145740Y-83451000D01*
X123079557Y-83444481D01*
X123013373Y-83437963D01*
X122843534Y-83386443D01*
X122687009Y-83302778D01*
X122651271Y-83273448D01*
X122549814Y-83190186D01*
X122447730Y-83065795D01*
X122437222Y-83052991D01*
X122353557Y-82896466D01*
X122302037Y-82726627D01*
X122284641Y-82550000D01*
X122302037Y-82373373D01*
X122353557Y-82203534D01*
X122437222Y-82047009D01*
X122466552Y-82011271D01*
X122549814Y-81909814D01*
X122651271Y-81826552D01*
X122687009Y-81797222D01*
X122843534Y-81713557D01*
X123013373Y-81662037D01*
X123079557Y-81655519D01*
X123145740Y-81649000D01*
X123234260Y-81649000D01*
X123300443Y-81655519D01*
X123300443Y-81655519D01*
G37*
G36*
X108060443Y-81655519D02*
G01*
X108126627Y-81662037D01*
X108296466Y-81713557D01*
X108452991Y-81797222D01*
X108488729Y-81826552D01*
X108590186Y-81909814D01*
X108673448Y-82011271D01*
X108702778Y-82047009D01*
X108786443Y-82203534D01*
X108837963Y-82373373D01*
X108855359Y-82550000D01*
X108837963Y-82726627D01*
X108786443Y-82896466D01*
X108702778Y-83052991D01*
X108692270Y-83065795D01*
X108590186Y-83190186D01*
X108488729Y-83273448D01*
X108452991Y-83302778D01*
X108296466Y-83386443D01*
X108126627Y-83437963D01*
X108060443Y-83444481D01*
X107994260Y-83451000D01*
X107905740Y-83451000D01*
X107839557Y-83444481D01*
X107773373Y-83437963D01*
X107603534Y-83386443D01*
X107447009Y-83302778D01*
X107411271Y-83273448D01*
X107309814Y-83190186D01*
X107207730Y-83065795D01*
X107197222Y-83052991D01*
X107113557Y-82896466D01*
X107062037Y-82726627D01*
X107044641Y-82550000D01*
X107062037Y-82373373D01*
X107113557Y-82203534D01*
X107197222Y-82047009D01*
X107226552Y-82011271D01*
X107309814Y-81909814D01*
X107411271Y-81826552D01*
X107447009Y-81797222D01*
X107603534Y-81713557D01*
X107773373Y-81662037D01*
X107839557Y-81655519D01*
X107905740Y-81649000D01*
X107994260Y-81649000D01*
X108060443Y-81655519D01*
X108060443Y-81655519D01*
G37*
G36*
X90280443Y-81655519D02*
G01*
X90346627Y-81662037D01*
X90516466Y-81713557D01*
X90672991Y-81797222D01*
X90708729Y-81826552D01*
X90810186Y-81909814D01*
X90893448Y-82011271D01*
X90922778Y-82047009D01*
X91006443Y-82203534D01*
X91057963Y-82373373D01*
X91075359Y-82550000D01*
X91057963Y-82726627D01*
X91006443Y-82896466D01*
X90922778Y-83052991D01*
X90912270Y-83065795D01*
X90810186Y-83190186D01*
X90708729Y-83273448D01*
X90672991Y-83302778D01*
X90516466Y-83386443D01*
X90346627Y-83437963D01*
X90280443Y-83444481D01*
X90214260Y-83451000D01*
X90125740Y-83451000D01*
X90059557Y-83444481D01*
X89993373Y-83437963D01*
X89823534Y-83386443D01*
X89667009Y-83302778D01*
X89631271Y-83273448D01*
X89529814Y-83190186D01*
X89427730Y-83065795D01*
X89417222Y-83052991D01*
X89333557Y-82896466D01*
X89282037Y-82726627D01*
X89264641Y-82550000D01*
X89282037Y-82373373D01*
X89333557Y-82203534D01*
X89417222Y-82047009D01*
X89446552Y-82011271D01*
X89529814Y-81909814D01*
X89631271Y-81826552D01*
X89667009Y-81797222D01*
X89823534Y-81713557D01*
X89993373Y-81662037D01*
X90059557Y-81655519D01*
X90125740Y-81649000D01*
X90214260Y-81649000D01*
X90280443Y-81655519D01*
X90280443Y-81655519D01*
G37*
G36*
X123300443Y-79115519D02*
G01*
X123366627Y-79122037D01*
X123536466Y-79173557D01*
X123692991Y-79257222D01*
X123709779Y-79271000D01*
X123830186Y-79369814D01*
X123913448Y-79471271D01*
X123942778Y-79507009D01*
X124026443Y-79663534D01*
X124077963Y-79833373D01*
X124095359Y-80010000D01*
X124077963Y-80186627D01*
X124026443Y-80356466D01*
X123942778Y-80512991D01*
X123913448Y-80548729D01*
X123830186Y-80650186D01*
X123728729Y-80733448D01*
X123692991Y-80762778D01*
X123536466Y-80846443D01*
X123366627Y-80897963D01*
X123300442Y-80904482D01*
X123234260Y-80911000D01*
X123145740Y-80911000D01*
X123079558Y-80904482D01*
X123013373Y-80897963D01*
X122843534Y-80846443D01*
X122687009Y-80762778D01*
X122651271Y-80733448D01*
X122549814Y-80650186D01*
X122466552Y-80548729D01*
X122437222Y-80512991D01*
X122353557Y-80356466D01*
X122302037Y-80186627D01*
X122284641Y-80010000D01*
X122302037Y-79833373D01*
X122353557Y-79663534D01*
X122437222Y-79507009D01*
X122466552Y-79471271D01*
X122549814Y-79369814D01*
X122670221Y-79271000D01*
X122687009Y-79257222D01*
X122843534Y-79173557D01*
X123013373Y-79122037D01*
X123079557Y-79115519D01*
X123145740Y-79109000D01*
X123234260Y-79109000D01*
X123300443Y-79115519D01*
X123300443Y-79115519D01*
G37*
G36*
X108060443Y-79115519D02*
G01*
X108126627Y-79122037D01*
X108296466Y-79173557D01*
X108452991Y-79257222D01*
X108469779Y-79271000D01*
X108590186Y-79369814D01*
X108673448Y-79471271D01*
X108702778Y-79507009D01*
X108786443Y-79663534D01*
X108837963Y-79833373D01*
X108855359Y-80010000D01*
X108837963Y-80186627D01*
X108786443Y-80356466D01*
X108702778Y-80512991D01*
X108673448Y-80548729D01*
X108590186Y-80650186D01*
X108488729Y-80733448D01*
X108452991Y-80762778D01*
X108296466Y-80846443D01*
X108126627Y-80897963D01*
X108060442Y-80904482D01*
X107994260Y-80911000D01*
X107905740Y-80911000D01*
X107839558Y-80904482D01*
X107773373Y-80897963D01*
X107603534Y-80846443D01*
X107447009Y-80762778D01*
X107411271Y-80733448D01*
X107309814Y-80650186D01*
X107226552Y-80548729D01*
X107197222Y-80512991D01*
X107113557Y-80356466D01*
X107062037Y-80186627D01*
X107044641Y-80010000D01*
X107062037Y-79833373D01*
X107113557Y-79663534D01*
X107197222Y-79507009D01*
X107226552Y-79471271D01*
X107309814Y-79369814D01*
X107430221Y-79271000D01*
X107447009Y-79257222D01*
X107603534Y-79173557D01*
X107773373Y-79122037D01*
X107839557Y-79115519D01*
X107905740Y-79109000D01*
X107994260Y-79109000D01*
X108060443Y-79115519D01*
X108060443Y-79115519D01*
G37*
G36*
X90280443Y-79115519D02*
G01*
X90346627Y-79122037D01*
X90516466Y-79173557D01*
X90672991Y-79257222D01*
X90689779Y-79271000D01*
X90810186Y-79369814D01*
X90893448Y-79471271D01*
X90922778Y-79507009D01*
X91006443Y-79663534D01*
X91057963Y-79833373D01*
X91075359Y-80010000D01*
X91057963Y-80186627D01*
X91006443Y-80356466D01*
X90922778Y-80512991D01*
X90893448Y-80548729D01*
X90810186Y-80650186D01*
X90708729Y-80733448D01*
X90672991Y-80762778D01*
X90516466Y-80846443D01*
X90346627Y-80897963D01*
X90280442Y-80904482D01*
X90214260Y-80911000D01*
X90125740Y-80911000D01*
X90059558Y-80904482D01*
X89993373Y-80897963D01*
X89823534Y-80846443D01*
X89667009Y-80762778D01*
X89631271Y-80733448D01*
X89529814Y-80650186D01*
X89446552Y-80548729D01*
X89417222Y-80512991D01*
X89333557Y-80356466D01*
X89282037Y-80186627D01*
X89264641Y-80010000D01*
X89282037Y-79833373D01*
X89333557Y-79663534D01*
X89417222Y-79507009D01*
X89446552Y-79471271D01*
X89529814Y-79369814D01*
X89650221Y-79271000D01*
X89667009Y-79257222D01*
X89823534Y-79173557D01*
X89993373Y-79122037D01*
X90059557Y-79115519D01*
X90125740Y-79109000D01*
X90214260Y-79109000D01*
X90280443Y-79115519D01*
X90280443Y-79115519D01*
G37*
G36*
X98321000Y-79271000D02*
G01*
X94719000Y-79271000D01*
X94719000Y-75669000D01*
X98321000Y-75669000D01*
X98321000Y-79271000D01*
X98321000Y-79271000D01*
G37*
G36*
X123300443Y-76575519D02*
G01*
X123366627Y-76582037D01*
X123536466Y-76633557D01*
X123692991Y-76717222D01*
X123728729Y-76746552D01*
X123830186Y-76829814D01*
X123913448Y-76931271D01*
X123942778Y-76967009D01*
X124026443Y-77123534D01*
X124077963Y-77293373D01*
X124095359Y-77470000D01*
X124077963Y-77646627D01*
X124026443Y-77816466D01*
X123942778Y-77972991D01*
X123913448Y-78008729D01*
X123830186Y-78110186D01*
X123728729Y-78193448D01*
X123692991Y-78222778D01*
X123536466Y-78306443D01*
X123366627Y-78357963D01*
X123300443Y-78364481D01*
X123234260Y-78371000D01*
X123145740Y-78371000D01*
X123079557Y-78364481D01*
X123013373Y-78357963D01*
X122843534Y-78306443D01*
X122687009Y-78222778D01*
X122651271Y-78193448D01*
X122549814Y-78110186D01*
X122466552Y-78008729D01*
X122437222Y-77972991D01*
X122353557Y-77816466D01*
X122302037Y-77646627D01*
X122284641Y-77470000D01*
X122302037Y-77293373D01*
X122353557Y-77123534D01*
X122437222Y-76967009D01*
X122466552Y-76931271D01*
X122549814Y-76829814D01*
X122651271Y-76746552D01*
X122687009Y-76717222D01*
X122843534Y-76633557D01*
X123013373Y-76582037D01*
X123079557Y-76575519D01*
X123145740Y-76569000D01*
X123234260Y-76569000D01*
X123300443Y-76575519D01*
X123300443Y-76575519D01*
G37*
G36*
X90280443Y-76575519D02*
G01*
X90346627Y-76582037D01*
X90516466Y-76633557D01*
X90672991Y-76717222D01*
X90708729Y-76746552D01*
X90810186Y-76829814D01*
X90893448Y-76931271D01*
X90922778Y-76967009D01*
X91006443Y-77123534D01*
X91057963Y-77293373D01*
X91075359Y-77470000D01*
X91057963Y-77646627D01*
X91006443Y-77816466D01*
X90922778Y-77972991D01*
X90893448Y-78008729D01*
X90810186Y-78110186D01*
X90708729Y-78193448D01*
X90672991Y-78222778D01*
X90516466Y-78306443D01*
X90346627Y-78357963D01*
X90280443Y-78364481D01*
X90214260Y-78371000D01*
X90125740Y-78371000D01*
X90059557Y-78364481D01*
X89993373Y-78357963D01*
X89823534Y-78306443D01*
X89667009Y-78222778D01*
X89631271Y-78193448D01*
X89529814Y-78110186D01*
X89446552Y-78008729D01*
X89417222Y-77972991D01*
X89333557Y-77816466D01*
X89282037Y-77646627D01*
X89264641Y-77470000D01*
X89282037Y-77293373D01*
X89333557Y-77123534D01*
X89417222Y-76967009D01*
X89446552Y-76931271D01*
X89529814Y-76829814D01*
X89631271Y-76746552D01*
X89667009Y-76717222D01*
X89823534Y-76633557D01*
X89993373Y-76582037D01*
X90059557Y-76575519D01*
X90125740Y-76569000D01*
X90214260Y-76569000D01*
X90280443Y-76575519D01*
X90280443Y-76575519D01*
G37*
G36*
X108060443Y-76575519D02*
G01*
X108126627Y-76582037D01*
X108296466Y-76633557D01*
X108452991Y-76717222D01*
X108488729Y-76746552D01*
X108590186Y-76829814D01*
X108673448Y-76931271D01*
X108702778Y-76967009D01*
X108786443Y-77123534D01*
X108837963Y-77293373D01*
X108855359Y-77470000D01*
X108837963Y-77646627D01*
X108786443Y-77816466D01*
X108702778Y-77972991D01*
X108673448Y-78008729D01*
X108590186Y-78110186D01*
X108488729Y-78193448D01*
X108452991Y-78222778D01*
X108296466Y-78306443D01*
X108126627Y-78357963D01*
X108060443Y-78364481D01*
X107994260Y-78371000D01*
X107905740Y-78371000D01*
X107839557Y-78364481D01*
X107773373Y-78357963D01*
X107603534Y-78306443D01*
X107447009Y-78222778D01*
X107411271Y-78193448D01*
X107309814Y-78110186D01*
X107226552Y-78008729D01*
X107197222Y-77972991D01*
X107113557Y-77816466D01*
X107062037Y-77646627D01*
X107044641Y-77470000D01*
X107062037Y-77293373D01*
X107113557Y-77123534D01*
X107197222Y-76967009D01*
X107226552Y-76931271D01*
X107309814Y-76829814D01*
X107411271Y-76746552D01*
X107447009Y-76717222D01*
X107603534Y-76633557D01*
X107773373Y-76582037D01*
X107839557Y-76575519D01*
X107905740Y-76569000D01*
X107994260Y-76569000D01*
X108060443Y-76575519D01*
X108060443Y-76575519D01*
G37*
G36*
X102346366Y-72685695D02*
G01*
X102503460Y-72733349D01*
X102648231Y-72810731D01*
X102775128Y-72914872D01*
X102879269Y-73041769D01*
X102956651Y-73186540D01*
X103004305Y-73343634D01*
X103021000Y-73513140D01*
X103021000Y-75426860D01*
X103004305Y-75596366D01*
X102956651Y-75753460D01*
X102879269Y-75898231D01*
X102775128Y-76025128D01*
X102648231Y-76129269D01*
X102503460Y-76206651D01*
X102346366Y-76254305D01*
X102176860Y-76271000D01*
X100263140Y-76271000D01*
X100093634Y-76254305D01*
X99936540Y-76206651D01*
X99791769Y-76129269D01*
X99664872Y-76025128D01*
X99560731Y-75898231D01*
X99483349Y-75753460D01*
X99435695Y-75596366D01*
X99419000Y-75426860D01*
X99419000Y-73513140D01*
X99435695Y-73343634D01*
X99483349Y-73186540D01*
X99560731Y-73041769D01*
X99664872Y-72914872D01*
X99791769Y-72810731D01*
X99936540Y-72733349D01*
X100093634Y-72685695D01*
X100263140Y-72669000D01*
X102176860Y-72669000D01*
X102346366Y-72685695D01*
X102346366Y-72685695D01*
G37*
G36*
X108060442Y-74035518D02*
G01*
X108126627Y-74042037D01*
X108296466Y-74093557D01*
X108452991Y-74177222D01*
X108488729Y-74206552D01*
X108590186Y-74289814D01*
X108673448Y-74391271D01*
X108702778Y-74427009D01*
X108786443Y-74583534D01*
X108837963Y-74753373D01*
X108855359Y-74930000D01*
X108837963Y-75106627D01*
X108786443Y-75276466D01*
X108702778Y-75432991D01*
X108673448Y-75468729D01*
X108590186Y-75570186D01*
X108488729Y-75653448D01*
X108452991Y-75682778D01*
X108296466Y-75766443D01*
X108126627Y-75817963D01*
X108060442Y-75824482D01*
X107994260Y-75831000D01*
X107905740Y-75831000D01*
X107839558Y-75824482D01*
X107773373Y-75817963D01*
X107603534Y-75766443D01*
X107447009Y-75682778D01*
X107411271Y-75653448D01*
X107309814Y-75570186D01*
X107226552Y-75468729D01*
X107197222Y-75432991D01*
X107113557Y-75276466D01*
X107062037Y-75106627D01*
X107044641Y-74930000D01*
X107062037Y-74753373D01*
X107113557Y-74583534D01*
X107197222Y-74427009D01*
X107226552Y-74391271D01*
X107309814Y-74289814D01*
X107411271Y-74206552D01*
X107447009Y-74177222D01*
X107603534Y-74093557D01*
X107773373Y-74042037D01*
X107839558Y-74035518D01*
X107905740Y-74029000D01*
X107994260Y-74029000D01*
X108060442Y-74035518D01*
X108060442Y-74035518D01*
G37*
G36*
X123300442Y-74035518D02*
G01*
X123366627Y-74042037D01*
X123536466Y-74093557D01*
X123692991Y-74177222D01*
X123728729Y-74206552D01*
X123830186Y-74289814D01*
X123913448Y-74391271D01*
X123942778Y-74427009D01*
X124026443Y-74583534D01*
X124077963Y-74753373D01*
X124095359Y-74930000D01*
X124077963Y-75106627D01*
X124026443Y-75276466D01*
X123942778Y-75432991D01*
X123913448Y-75468729D01*
X123830186Y-75570186D01*
X123728729Y-75653448D01*
X123692991Y-75682778D01*
X123536466Y-75766443D01*
X123366627Y-75817963D01*
X123300442Y-75824482D01*
X123234260Y-75831000D01*
X123145740Y-75831000D01*
X123079558Y-75824482D01*
X123013373Y-75817963D01*
X122843534Y-75766443D01*
X122687009Y-75682778D01*
X122651271Y-75653448D01*
X122549814Y-75570186D01*
X122466552Y-75468729D01*
X122437222Y-75432991D01*
X122353557Y-75276466D01*
X122302037Y-75106627D01*
X122284641Y-74930000D01*
X122302037Y-74753373D01*
X122353557Y-74583534D01*
X122437222Y-74427009D01*
X122466552Y-74391271D01*
X122549814Y-74289814D01*
X122651271Y-74206552D01*
X122687009Y-74177222D01*
X122843534Y-74093557D01*
X123013373Y-74042037D01*
X123079558Y-74035518D01*
X123145740Y-74029000D01*
X123234260Y-74029000D01*
X123300442Y-74035518D01*
X123300442Y-74035518D01*
G37*
G36*
X123300443Y-71495519D02*
G01*
X123366627Y-71502037D01*
X123536466Y-71553557D01*
X123692991Y-71637222D01*
X123728729Y-71666552D01*
X123830186Y-71749814D01*
X123913448Y-71851271D01*
X123942778Y-71887009D01*
X124026443Y-72043534D01*
X124077963Y-72213373D01*
X124095359Y-72390000D01*
X124077963Y-72566627D01*
X124026443Y-72736466D01*
X124026442Y-72736468D01*
X123986747Y-72810731D01*
X123942778Y-72892991D01*
X123913448Y-72928729D01*
X123830186Y-73030186D01*
X123728729Y-73113448D01*
X123692991Y-73142778D01*
X123536466Y-73226443D01*
X123366627Y-73277963D01*
X123300443Y-73284481D01*
X123234260Y-73291000D01*
X123145740Y-73291000D01*
X123079557Y-73284481D01*
X123013373Y-73277963D01*
X122843534Y-73226443D01*
X122687009Y-73142778D01*
X122651271Y-73113448D01*
X122549814Y-73030186D01*
X122466552Y-72928729D01*
X122437222Y-72892991D01*
X122393253Y-72810731D01*
X122353558Y-72736468D01*
X122353557Y-72736466D01*
X122302037Y-72566627D01*
X122284641Y-72390000D01*
X122302037Y-72213373D01*
X122353557Y-72043534D01*
X122437222Y-71887009D01*
X122466552Y-71851271D01*
X122549814Y-71749814D01*
X122651271Y-71666552D01*
X122687009Y-71637222D01*
X122843534Y-71553557D01*
X123013373Y-71502037D01*
X123079557Y-71495519D01*
X123145740Y-71489000D01*
X123234260Y-71489000D01*
X123300443Y-71495519D01*
X123300443Y-71495519D01*
G37*
G36*
X108060443Y-71495519D02*
G01*
X108126627Y-71502037D01*
X108296466Y-71553557D01*
X108452991Y-71637222D01*
X108488729Y-71666552D01*
X108590186Y-71749814D01*
X108673448Y-71851271D01*
X108702778Y-71887009D01*
X108786443Y-72043534D01*
X108837963Y-72213373D01*
X108855359Y-72390000D01*
X108837963Y-72566627D01*
X108786443Y-72736466D01*
X108786442Y-72736468D01*
X108746747Y-72810731D01*
X108702778Y-72892991D01*
X108673448Y-72928729D01*
X108590186Y-73030186D01*
X108488729Y-73113448D01*
X108452991Y-73142778D01*
X108296466Y-73226443D01*
X108126627Y-73277963D01*
X108060443Y-73284481D01*
X107994260Y-73291000D01*
X107905740Y-73291000D01*
X107839557Y-73284481D01*
X107773373Y-73277963D01*
X107603534Y-73226443D01*
X107447009Y-73142778D01*
X107411271Y-73113448D01*
X107309814Y-73030186D01*
X107226552Y-72928729D01*
X107197222Y-72892991D01*
X107153253Y-72810731D01*
X107113558Y-72736468D01*
X107113557Y-72736466D01*
X107062037Y-72566627D01*
X107044641Y-72390000D01*
X107062037Y-72213373D01*
X107113557Y-72043534D01*
X107197222Y-71887009D01*
X107226552Y-71851271D01*
X107309814Y-71749814D01*
X107411271Y-71666552D01*
X107447009Y-71637222D01*
X107603534Y-71553557D01*
X107773373Y-71502037D01*
X107839557Y-71495519D01*
X107905740Y-71489000D01*
X107994260Y-71489000D01*
X108060443Y-71495519D01*
X108060443Y-71495519D01*
G37*
G36*
X97746979Y-69933293D02*
G01*
X97880625Y-69973834D01*
X98003784Y-70039664D01*
X98111740Y-70128260D01*
X98200336Y-70236216D01*
X98266166Y-70359375D01*
X98306707Y-70493021D01*
X98321000Y-70638140D01*
X98321000Y-72301860D01*
X98306707Y-72446979D01*
X98266166Y-72580625D01*
X98200336Y-72703784D01*
X98111740Y-72811740D01*
X98003784Y-72900336D01*
X97880625Y-72966166D01*
X97746979Y-73006707D01*
X97601860Y-73021000D01*
X95438140Y-73021000D01*
X95293021Y-73006707D01*
X95159375Y-72966166D01*
X95036216Y-72900336D01*
X94928260Y-72811740D01*
X94839664Y-72703784D01*
X94773834Y-72580625D01*
X94733293Y-72446979D01*
X94719000Y-72301860D01*
X94719000Y-70638140D01*
X94733293Y-70493021D01*
X94773834Y-70359375D01*
X94839664Y-70236216D01*
X94928260Y-70128260D01*
X95036216Y-70039664D01*
X95159375Y-69973834D01*
X95293021Y-69933293D01*
X95438140Y-69919000D01*
X97601860Y-69919000D01*
X97746979Y-69933293D01*
X97746979Y-69933293D01*
G37*
G36*
X116921000Y-72471000D02*
G01*
X114219000Y-72471000D01*
X114219000Y-69769000D01*
X116921000Y-69769000D01*
X116921000Y-72471000D01*
X116921000Y-72471000D01*
G37*
G36*
X123300443Y-68955519D02*
G01*
X123366627Y-68962037D01*
X123536466Y-69013557D01*
X123692991Y-69097222D01*
X123728729Y-69126552D01*
X123830186Y-69209814D01*
X123913448Y-69311271D01*
X123942778Y-69347009D01*
X124026443Y-69503534D01*
X124077963Y-69673373D01*
X124095359Y-69850000D01*
X124077963Y-70026627D01*
X124026443Y-70196466D01*
X123942778Y-70352991D01*
X123913448Y-70388729D01*
X123830186Y-70490186D01*
X123728729Y-70573448D01*
X123692991Y-70602778D01*
X123536466Y-70686443D01*
X123366627Y-70737963D01*
X123300443Y-70744481D01*
X123234260Y-70751000D01*
X123145740Y-70751000D01*
X123079557Y-70744481D01*
X123013373Y-70737963D01*
X122843534Y-70686443D01*
X122687009Y-70602778D01*
X122651271Y-70573448D01*
X122549814Y-70490186D01*
X122466552Y-70388729D01*
X122437222Y-70352991D01*
X122353557Y-70196466D01*
X122302037Y-70026627D01*
X122284641Y-69850000D01*
X122302037Y-69673373D01*
X122353557Y-69503534D01*
X122437222Y-69347009D01*
X122466552Y-69311271D01*
X122549814Y-69209814D01*
X122651271Y-69126552D01*
X122687009Y-69097222D01*
X122843534Y-69013557D01*
X123013373Y-68962037D01*
X123079557Y-68955519D01*
X123145740Y-68949000D01*
X123234260Y-68949000D01*
X123300443Y-68955519D01*
X123300443Y-68955519D01*
G37*
G36*
X108060443Y-68955519D02*
G01*
X108126627Y-68962037D01*
X108296466Y-69013557D01*
X108452991Y-69097222D01*
X108488729Y-69126552D01*
X108590186Y-69209814D01*
X108673448Y-69311271D01*
X108702778Y-69347009D01*
X108786443Y-69503534D01*
X108837963Y-69673373D01*
X108855359Y-69850000D01*
X108837963Y-70026627D01*
X108786443Y-70196466D01*
X108702778Y-70352991D01*
X108673448Y-70388729D01*
X108590186Y-70490186D01*
X108488729Y-70573448D01*
X108452991Y-70602778D01*
X108296466Y-70686443D01*
X108126627Y-70737963D01*
X108060443Y-70744481D01*
X107994260Y-70751000D01*
X107905740Y-70751000D01*
X107839557Y-70744481D01*
X107773373Y-70737963D01*
X107603534Y-70686443D01*
X107447009Y-70602778D01*
X107411271Y-70573448D01*
X107309814Y-70490186D01*
X107226552Y-70388729D01*
X107197222Y-70352991D01*
X107113557Y-70196466D01*
X107062037Y-70026627D01*
X107044641Y-69850000D01*
X107062037Y-69673373D01*
X107113557Y-69503534D01*
X107197222Y-69347009D01*
X107226552Y-69311271D01*
X107309814Y-69209814D01*
X107411271Y-69126552D01*
X107447009Y-69097222D01*
X107603534Y-69013557D01*
X107773373Y-68962037D01*
X107839557Y-68955519D01*
X107905740Y-68949000D01*
X107994260Y-68949000D01*
X108060443Y-68955519D01*
X108060443Y-68955519D01*
G37*
G36*
X123300443Y-66415519D02*
G01*
X123366627Y-66422037D01*
X123536466Y-66473557D01*
X123692991Y-66557222D01*
X123728729Y-66586552D01*
X123830186Y-66669814D01*
X123913448Y-66771271D01*
X123942778Y-66807009D01*
X124026443Y-66963534D01*
X124077963Y-67133373D01*
X124095359Y-67310000D01*
X124077963Y-67486627D01*
X124026443Y-67656466D01*
X123942778Y-67812991D01*
X123913448Y-67848729D01*
X123830186Y-67950186D01*
X123728729Y-68033448D01*
X123692991Y-68062778D01*
X123536466Y-68146443D01*
X123366627Y-68197963D01*
X123300443Y-68204481D01*
X123234260Y-68211000D01*
X123145740Y-68211000D01*
X123079557Y-68204481D01*
X123013373Y-68197963D01*
X122843534Y-68146443D01*
X122687009Y-68062778D01*
X122651271Y-68033448D01*
X122549814Y-67950186D01*
X122466552Y-67848729D01*
X122437222Y-67812991D01*
X122353557Y-67656466D01*
X122302037Y-67486627D01*
X122284641Y-67310000D01*
X122302037Y-67133373D01*
X122353557Y-66963534D01*
X122437222Y-66807009D01*
X122466552Y-66771271D01*
X122549814Y-66669814D01*
X122651271Y-66586552D01*
X122687009Y-66557222D01*
X122843534Y-66473557D01*
X123013373Y-66422037D01*
X123079557Y-66415519D01*
X123145740Y-66409000D01*
X123234260Y-66409000D01*
X123300443Y-66415519D01*
X123300443Y-66415519D01*
G37*
G36*
X108060443Y-66415519D02*
G01*
X108126627Y-66422037D01*
X108296466Y-66473557D01*
X108452991Y-66557222D01*
X108488729Y-66586552D01*
X108590186Y-66669814D01*
X108673448Y-66771271D01*
X108702778Y-66807009D01*
X108786443Y-66963534D01*
X108837963Y-67133373D01*
X108855359Y-67310000D01*
X108837963Y-67486627D01*
X108786443Y-67656466D01*
X108702778Y-67812991D01*
X108673448Y-67848729D01*
X108590186Y-67950186D01*
X108488729Y-68033448D01*
X108452991Y-68062778D01*
X108296466Y-68146443D01*
X108126627Y-68197963D01*
X108060443Y-68204481D01*
X107994260Y-68211000D01*
X107905740Y-68211000D01*
X107839557Y-68204481D01*
X107773373Y-68197963D01*
X107603534Y-68146443D01*
X107447009Y-68062778D01*
X107411271Y-68033448D01*
X107309814Y-67950186D01*
X107226552Y-67848729D01*
X107197222Y-67812991D01*
X107113557Y-67656466D01*
X107062037Y-67486627D01*
X107044641Y-67310000D01*
X107062037Y-67133373D01*
X107113557Y-66963534D01*
X107197222Y-66807009D01*
X107226552Y-66771271D01*
X107309814Y-66669814D01*
X107411271Y-66586552D01*
X107447009Y-66557222D01*
X107603534Y-66473557D01*
X107773373Y-66422037D01*
X107839557Y-66415519D01*
X107905740Y-66409000D01*
X107994260Y-66409000D01*
X108060443Y-66415519D01*
X108060443Y-66415519D01*
G37*
G36*
X124091000Y-65671000D02*
G01*
X122289000Y-65671000D01*
X122289000Y-63869000D01*
X124091000Y-63869000D01*
X124091000Y-65671000D01*
X124091000Y-65671000D01*
G37*
G36*
X108851000Y-65671000D02*
G01*
X107049000Y-65671000D01*
X107049000Y-63869000D01*
X108851000Y-63869000D01*
X108851000Y-65671000D01*
X108851000Y-65671000D01*
G37*
M02*
