M48
; DRILL file {KiCad 5.1.4+dfsg1-1~bpo10+1} date sam. 27 juin 2020 23:46:49 CEST
; FORMAT={-:-/ absolute / inch / decimal}
; #@! TF.CreationDate,2020-06-27T23:46:49+02:00
; #@! TF.GenerationSoftware,Kicad,Pcbnew,5.1.4+dfsg1-1~bpo10+1
; #@! TF.FileFunction,Plated,1,2,PTH
FMAT,2
INCH
T1C0.0157
T2C0.0276
T3C0.0315
T4C0.0354
T5C0.0394
T6C0.0512
T7C0.0984
%
G90
G05
T1
X3.95Y-3.2
X4.35Y-3.25
X4.35Y-3.35
X4.35Y-3.45
X4.75Y-3.1
X4.75Y-3.3
T2
X3.9Y-3.65
X3.9Y-3.95
X3.45Y-3.65
X3.45Y-3.95
X3.75Y-3.65
X3.75Y-3.95
X4.05Y-3.65
X4.05Y-3.95
X3.6Y-3.65
X3.6Y-3.95
T3
X2.5Y-3.475
X2.8Y-3.475
T4
X4.075Y-4.5
X4.075Y-4.6
X2.675Y-4.5
X2.675Y-4.6
X4.775Y-4.5
X4.775Y-4.6
X3.375Y-4.5
X3.375Y-4.6
T5
X4.85Y-2.55
X4.85Y-2.65
X4.85Y-2.75
X4.85Y-2.85
X4.85Y-2.95
X4.85Y-3.05
X4.85Y-3.15
X4.85Y-3.25
X4.85Y-3.35
X4.85Y-3.45
X4.85Y-3.55
X4.85Y-3.65
X4.85Y-3.75
X2.5Y-3.81
X2.7992Y-3.81
X4.25Y-2.55
X4.25Y-2.65
X4.25Y-2.75
X4.25Y-2.85
X4.25Y-2.95
X4.25Y-3.05
X4.25Y-3.15
X4.25Y-3.25
X4.25Y-3.35
X4.25Y-3.45
X4.25Y-3.55
X4.25Y-3.65
X4.25Y-3.75
X3.55Y-3.05
X3.55Y-3.15
X3.55Y-3.25
X3.55Y-3.35
X3.75Y-3.25
X3.75Y-3.4469
T6
X4.55Y-2.8
X4.55Y-3.3
X4.675Y-4.9079
X4.675Y-5.4
X4.8719Y-4.9079
X4.8719Y-5.4
X2.575Y-4.9079
X2.575Y-5.4
X2.7719Y-4.9079
X2.7719Y-5.4
X3.975Y-4.9079
X3.975Y-5.4
X4.1719Y-4.9079
X4.1719Y-5.4
X3.275Y-4.9079
X3.275Y-5.4
X3.4719Y-4.9079
X3.4719Y-5.4
T7
X2.25Y-2.8
X2.25Y-4.0205
X2.25Y-5.35
X3.725Y-4.9
X5.2Y-5.35
X5.2028Y-2.8
X5.2028Y-4.0205
T5
G00X3.8394Y-2.8138
M15
G01X3.7606Y-2.8138
M16
G05
G00X3.8394Y-3.05
M15
G01X3.7606Y-3.05
M16
G05
G00X3.985Y-2.8925
M15
G01X3.985Y-2.9713
M16
G05
T0
M30
