G04 #@! TF.GenerationSoftware,KiCad,Pcbnew,5.1.4+dfsg1-1~bpo10+1*
G04 #@! TF.CreationDate,2020-06-27T23:46:46+02:00*
G04 #@! TF.ProjectId,SinS,53696e53-2e6b-4696-9361-645f70636258,rev?*
G04 #@! TF.SameCoordinates,Original*
G04 #@! TF.FileFunction,Legend,Bot*
G04 #@! TF.FilePolarity,Positive*
%FSLAX46Y46*%
G04 Gerber Fmt 4.6, Leading zero omitted, Abs format (unit mm)*
G04 Created by KiCad (PCBNEW 5.1.4+dfsg1-1~bpo10+1) date 2020-06-27 23:46:46*
%MOMM*%
%LPD*%
G04 APERTURE LIST*
%ADD10C,0.100000*%
%ADD11C,0.150000*%
%ADD12C,0.120000*%
G04 APERTURE END LIST*
D10*
G36*
X66040000Y-78740000D02*
G01*
X65405000Y-78740000D01*
X65405000Y-78105000D01*
X66040000Y-78105000D01*
X66040000Y-78740000D01*
G37*
X66040000Y-78740000D02*
X65405000Y-78740000D01*
X65405000Y-78105000D01*
X66040000Y-78105000D01*
X66040000Y-78740000D01*
G36*
X63500000Y-78740000D02*
G01*
X62865000Y-78740000D01*
X62865000Y-78105000D01*
X63500000Y-78105000D01*
X63500000Y-78740000D01*
G37*
X63500000Y-78740000D02*
X62865000Y-78740000D01*
X62865000Y-78105000D01*
X63500000Y-78105000D01*
X63500000Y-78740000D01*
G36*
X68580000Y-78740000D02*
G01*
X67945000Y-78740000D01*
X67945000Y-78105000D01*
X68580000Y-78105000D01*
X68580000Y-78740000D01*
G37*
X68580000Y-78740000D02*
X67945000Y-78740000D01*
X67945000Y-78105000D01*
X68580000Y-78105000D01*
X68580000Y-78740000D01*
G36*
X66040000Y-83820000D02*
G01*
X65405000Y-83820000D01*
X65405000Y-83185000D01*
X66040000Y-83185000D01*
X66040000Y-83820000D01*
G37*
X66040000Y-83820000D02*
X65405000Y-83820000D01*
X65405000Y-83185000D01*
X66040000Y-83185000D01*
X66040000Y-83820000D01*
G36*
X64770000Y-83820000D02*
G01*
X64135000Y-83820000D01*
X64135000Y-83185000D01*
X64770000Y-83185000D01*
X64770000Y-83820000D01*
G37*
X64770000Y-83820000D02*
X64135000Y-83820000D01*
X64135000Y-83185000D01*
X64770000Y-83185000D01*
X64770000Y-83820000D01*
G36*
X67310000Y-85090000D02*
G01*
X66675000Y-85090000D01*
X66675000Y-84455000D01*
X67310000Y-84455000D01*
X67310000Y-85090000D01*
G37*
X67310000Y-85090000D02*
X66675000Y-85090000D01*
X66675000Y-84455000D01*
X67310000Y-84455000D01*
X67310000Y-85090000D01*
G36*
X68580000Y-83820000D02*
G01*
X67945000Y-83820000D01*
X67945000Y-83185000D01*
X68580000Y-83185000D01*
X68580000Y-83820000D01*
G37*
X68580000Y-83820000D02*
X67945000Y-83820000D01*
X67945000Y-83185000D01*
X68580000Y-83185000D01*
X68580000Y-83820000D01*
G36*
X63500000Y-83820000D02*
G01*
X62865000Y-83820000D01*
X62865000Y-83185000D01*
X63500000Y-83185000D01*
X63500000Y-83820000D01*
G37*
X63500000Y-83820000D02*
X62865000Y-83820000D01*
X62865000Y-83185000D01*
X63500000Y-83185000D01*
X63500000Y-83820000D01*
G36*
X67310000Y-83820000D02*
G01*
X66675000Y-83820000D01*
X66675000Y-83185000D01*
X67310000Y-83185000D01*
X67310000Y-83820000D01*
G37*
X67310000Y-83820000D02*
X66675000Y-83820000D01*
X66675000Y-83185000D01*
X67310000Y-83185000D01*
X67310000Y-83820000D01*
G36*
X64770000Y-77470000D02*
G01*
X64135000Y-77470000D01*
X64135000Y-76835000D01*
X64770000Y-76835000D01*
X64770000Y-77470000D01*
G37*
X64770000Y-77470000D02*
X64135000Y-77470000D01*
X64135000Y-76835000D01*
X64770000Y-76835000D01*
X64770000Y-77470000D01*
G36*
X67310000Y-76200000D02*
G01*
X66675000Y-76200000D01*
X66675000Y-75565000D01*
X67310000Y-75565000D01*
X67310000Y-76200000D01*
G37*
X67310000Y-76200000D02*
X66675000Y-76200000D01*
X66675000Y-75565000D01*
X67310000Y-75565000D01*
X67310000Y-76200000D01*
G36*
X66040000Y-76200000D02*
G01*
X65405000Y-76200000D01*
X65405000Y-75565000D01*
X66040000Y-75565000D01*
X66040000Y-76200000D01*
G37*
X66040000Y-76200000D02*
X65405000Y-76200000D01*
X65405000Y-75565000D01*
X66040000Y-75565000D01*
X66040000Y-76200000D01*
G36*
X68580000Y-80010000D02*
G01*
X67945000Y-80010000D01*
X67945000Y-79375000D01*
X68580000Y-79375000D01*
X68580000Y-80010000D01*
G37*
X68580000Y-80010000D02*
X67945000Y-80010000D01*
X67945000Y-79375000D01*
X68580000Y-79375000D01*
X68580000Y-80010000D01*
G36*
X63500000Y-80010000D02*
G01*
X62865000Y-80010000D01*
X62865000Y-79375000D01*
X63500000Y-79375000D01*
X63500000Y-80010000D01*
G37*
X63500000Y-80010000D02*
X62865000Y-80010000D01*
X62865000Y-79375000D01*
X63500000Y-79375000D01*
X63500000Y-80010000D01*
G36*
X67310000Y-80010000D02*
G01*
X66675000Y-80010000D01*
X66675000Y-79375000D01*
X67310000Y-79375000D01*
X67310000Y-80010000D01*
G37*
X67310000Y-80010000D02*
X66675000Y-80010000D01*
X66675000Y-79375000D01*
X67310000Y-79375000D01*
X67310000Y-80010000D01*
G36*
X66040000Y-80010000D02*
G01*
X65405000Y-80010000D01*
X65405000Y-79375000D01*
X66040000Y-79375000D01*
X66040000Y-80010000D01*
G37*
X66040000Y-80010000D02*
X65405000Y-80010000D01*
X65405000Y-79375000D01*
X66040000Y-79375000D01*
X66040000Y-80010000D01*
G36*
X64770000Y-80010000D02*
G01*
X64135000Y-80010000D01*
X64135000Y-79375000D01*
X64770000Y-79375000D01*
X64770000Y-80010000D01*
G37*
X64770000Y-80010000D02*
X64135000Y-80010000D01*
X64135000Y-79375000D01*
X64770000Y-79375000D01*
X64770000Y-80010000D01*
G36*
X68580000Y-81280000D02*
G01*
X67945000Y-81280000D01*
X67945000Y-80645000D01*
X68580000Y-80645000D01*
X68580000Y-81280000D01*
G37*
X68580000Y-81280000D02*
X67945000Y-81280000D01*
X67945000Y-80645000D01*
X68580000Y-80645000D01*
X68580000Y-81280000D01*
G36*
X64770000Y-81280000D02*
G01*
X64135000Y-81280000D01*
X64135000Y-80645000D01*
X64770000Y-80645000D01*
X64770000Y-81280000D01*
G37*
X64770000Y-81280000D02*
X64135000Y-81280000D01*
X64135000Y-80645000D01*
X64770000Y-80645000D01*
X64770000Y-81280000D01*
G36*
X68580000Y-82550000D02*
G01*
X67945000Y-82550000D01*
X67945000Y-81915000D01*
X68580000Y-81915000D01*
X68580000Y-82550000D01*
G37*
X68580000Y-82550000D02*
X67945000Y-82550000D01*
X67945000Y-81915000D01*
X68580000Y-81915000D01*
X68580000Y-82550000D01*
G36*
X63500000Y-82550000D02*
G01*
X62865000Y-82550000D01*
X62865000Y-81915000D01*
X63500000Y-81915000D01*
X63500000Y-82550000D01*
G37*
X63500000Y-82550000D02*
X62865000Y-82550000D01*
X62865000Y-81915000D01*
X63500000Y-81915000D01*
X63500000Y-82550000D01*
G36*
X63500000Y-81280000D02*
G01*
X62865000Y-81280000D01*
X62865000Y-80645000D01*
X63500000Y-80645000D01*
X63500000Y-81280000D01*
G37*
X63500000Y-81280000D02*
X62865000Y-81280000D01*
X62865000Y-80645000D01*
X63500000Y-80645000D01*
X63500000Y-81280000D01*
G36*
X67310000Y-81280000D02*
G01*
X66675000Y-81280000D01*
X66675000Y-80645000D01*
X67310000Y-80645000D01*
X67310000Y-81280000D01*
G37*
X67310000Y-81280000D02*
X66675000Y-81280000D01*
X66675000Y-80645000D01*
X67310000Y-80645000D01*
X67310000Y-81280000D01*
G36*
X66040000Y-81280000D02*
G01*
X65405000Y-81280000D01*
X65405000Y-80645000D01*
X66040000Y-80645000D01*
X66040000Y-81280000D01*
G37*
X66040000Y-81280000D02*
X65405000Y-81280000D01*
X65405000Y-80645000D01*
X66040000Y-80645000D01*
X66040000Y-81280000D01*
G36*
X66040000Y-85090000D02*
G01*
X65405000Y-85090000D01*
X65405000Y-84455000D01*
X66040000Y-84455000D01*
X66040000Y-85090000D01*
G37*
X66040000Y-85090000D02*
X65405000Y-85090000D01*
X65405000Y-84455000D01*
X66040000Y-84455000D01*
X66040000Y-85090000D01*
G36*
X64770000Y-85090000D02*
G01*
X64135000Y-85090000D01*
X64135000Y-84455000D01*
X64770000Y-84455000D01*
X64770000Y-85090000D01*
G37*
X64770000Y-85090000D02*
X64135000Y-85090000D01*
X64135000Y-84455000D01*
X64770000Y-84455000D01*
X64770000Y-85090000D01*
G36*
X68580000Y-77470000D02*
G01*
X67945000Y-77470000D01*
X67945000Y-76835000D01*
X68580000Y-76835000D01*
X68580000Y-77470000D01*
G37*
X68580000Y-77470000D02*
X67945000Y-77470000D01*
X67945000Y-76835000D01*
X68580000Y-76835000D01*
X68580000Y-77470000D01*
G36*
X64770000Y-76200000D02*
G01*
X64135000Y-76200000D01*
X64135000Y-75565000D01*
X64770000Y-75565000D01*
X64770000Y-76200000D01*
G37*
X64770000Y-76200000D02*
X64135000Y-76200000D01*
X64135000Y-75565000D01*
X64770000Y-75565000D01*
X64770000Y-76200000D01*
G36*
X63500000Y-77470000D02*
G01*
X62865000Y-77470000D01*
X62865000Y-76835000D01*
X63500000Y-76835000D01*
X63500000Y-77470000D01*
G37*
X63500000Y-77470000D02*
X62865000Y-77470000D01*
X62865000Y-76835000D01*
X63500000Y-76835000D01*
X63500000Y-77470000D01*
G36*
X67310000Y-77470000D02*
G01*
X66675000Y-77470000D01*
X66675000Y-76835000D01*
X67310000Y-76835000D01*
X67310000Y-77470000D01*
G37*
X67310000Y-77470000D02*
X66675000Y-77470000D01*
X66675000Y-76835000D01*
X67310000Y-76835000D01*
X67310000Y-77470000D01*
G36*
X66040000Y-77470000D02*
G01*
X65405000Y-77470000D01*
X65405000Y-76835000D01*
X66040000Y-76835000D01*
X66040000Y-77470000D01*
G37*
X66040000Y-77470000D02*
X65405000Y-77470000D01*
X65405000Y-76835000D01*
X66040000Y-76835000D01*
X66040000Y-77470000D01*
D11*
X88517142Y-73445714D02*
X87802857Y-73445714D01*
X88231428Y-73017142D02*
X88517142Y-74302857D01*
X87898095Y-73874285D02*
X88612380Y-73874285D01*
X88183809Y-74302857D02*
X87898095Y-73017142D01*
X86898095Y-74017142D02*
X86945714Y-74064761D01*
X87088571Y-74112380D01*
X87183809Y-74112380D01*
X87326666Y-74064761D01*
X87421904Y-73969523D01*
X87469523Y-73874285D01*
X87517142Y-73683809D01*
X87517142Y-73540952D01*
X87469523Y-73350476D01*
X87421904Y-73255238D01*
X87326666Y-73160000D01*
X87183809Y-73112380D01*
X87088571Y-73112380D01*
X86945714Y-73160000D01*
X86898095Y-73207619D01*
X86469523Y-74112380D02*
X86469523Y-73112380D01*
X86040952Y-74112380D02*
X86040952Y-73588571D01*
X86088571Y-73493333D01*
X86183809Y-73445714D01*
X86326666Y-73445714D01*
X86421904Y-73493333D01*
X86469523Y-73540952D01*
X85136190Y-74112380D02*
X85136190Y-73588571D01*
X85183809Y-73493333D01*
X85279047Y-73445714D01*
X85469523Y-73445714D01*
X85564761Y-73493333D01*
X85136190Y-74064761D02*
X85231428Y-74112380D01*
X85469523Y-74112380D01*
X85564761Y-74064761D01*
X85612380Y-73969523D01*
X85612380Y-73874285D01*
X85564761Y-73779047D01*
X85469523Y-73731428D01*
X85231428Y-73731428D01*
X85136190Y-73683809D01*
X84517142Y-74112380D02*
X84612380Y-74064761D01*
X84660000Y-73969523D01*
X84660000Y-73112380D01*
X83993333Y-74112380D02*
X84088571Y-74064761D01*
X84136190Y-73969523D01*
X84136190Y-73112380D01*
X83231428Y-74064761D02*
X83326666Y-74112380D01*
X83517142Y-74112380D01*
X83612380Y-74064761D01*
X83660000Y-73969523D01*
X83660000Y-73588571D01*
X83612380Y-73493333D01*
X83517142Y-73445714D01*
X83326666Y-73445714D01*
X83231428Y-73493333D01*
X83183809Y-73588571D01*
X83183809Y-73683809D01*
X83660000Y-73779047D01*
X82755238Y-73445714D02*
X82755238Y-74112380D01*
X82755238Y-73540952D02*
X82707619Y-73493333D01*
X82612380Y-73445714D01*
X82469523Y-73445714D01*
X82374285Y-73493333D01*
X82326666Y-73588571D01*
X82326666Y-74112380D01*
X81421904Y-73445714D02*
X81421904Y-74255238D01*
X81469523Y-74350476D01*
X81517142Y-74398095D01*
X81612380Y-74445714D01*
X81755238Y-74445714D01*
X81850476Y-74398095D01*
X81421904Y-74064761D02*
X81517142Y-74112380D01*
X81707619Y-74112380D01*
X81802857Y-74064761D01*
X81850476Y-74017142D01*
X81898095Y-73921904D01*
X81898095Y-73636190D01*
X81850476Y-73540952D01*
X81802857Y-73493333D01*
X81707619Y-73445714D01*
X81517142Y-73445714D01*
X81421904Y-73493333D01*
X80564761Y-74064761D02*
X80660000Y-74112380D01*
X80850476Y-74112380D01*
X80945714Y-74064761D01*
X80993333Y-73969523D01*
X80993333Y-73588571D01*
X80945714Y-73493333D01*
X80850476Y-73445714D01*
X80660000Y-73445714D01*
X80564761Y-73493333D01*
X80517142Y-73588571D01*
X80517142Y-73683809D01*
X80993333Y-73779047D01*
X79326666Y-74112380D02*
X79326666Y-73112380D01*
X78993333Y-73826666D01*
X78660000Y-73112380D01*
X78660000Y-74112380D01*
X77755238Y-74112380D02*
X77755238Y-73588571D01*
X77802857Y-73493333D01*
X77898095Y-73445714D01*
X78088571Y-73445714D01*
X78183809Y-73493333D01*
X77755238Y-74064761D02*
X77850476Y-74112380D01*
X78088571Y-74112380D01*
X78183809Y-74064761D01*
X78231428Y-73969523D01*
X78231428Y-73874285D01*
X78183809Y-73779047D01*
X78088571Y-73731428D01*
X77850476Y-73731428D01*
X77755238Y-73683809D01*
X77279047Y-74112380D02*
X77279047Y-73112380D01*
X77183809Y-73731428D02*
X76898095Y-74112380D01*
X76898095Y-73445714D02*
X77279047Y-73826666D01*
X76088571Y-74064761D02*
X76183809Y-74112380D01*
X76374285Y-74112380D01*
X76469523Y-74064761D01*
X76517142Y-73969523D01*
X76517142Y-73588571D01*
X76469523Y-73493333D01*
X76374285Y-73445714D01*
X76183809Y-73445714D01*
X76088571Y-73493333D01*
X76040952Y-73588571D01*
X76040952Y-73683809D01*
X76517142Y-73779047D01*
X75612380Y-74112380D02*
X75612380Y-73445714D01*
X75612380Y-73636190D02*
X75564761Y-73540952D01*
X75517142Y-73493333D01*
X75421904Y-73445714D01*
X75326666Y-73445714D01*
X75040952Y-74064761D02*
X74945714Y-74112380D01*
X74755238Y-74112380D01*
X74660000Y-74064761D01*
X74612380Y-73969523D01*
X74612380Y-73921904D01*
X74660000Y-73826666D01*
X74755238Y-73779047D01*
X74898095Y-73779047D01*
X74993333Y-73731428D01*
X75040952Y-73636190D01*
X75040952Y-73588571D01*
X74993333Y-73493333D01*
X74898095Y-73445714D01*
X74755238Y-73445714D01*
X74660000Y-73493333D01*
X73469523Y-73207619D02*
X73421904Y-73160000D01*
X73326666Y-73112380D01*
X73088571Y-73112380D01*
X72993333Y-73160000D01*
X72945714Y-73207619D01*
X72898095Y-73302857D01*
X72898095Y-73398095D01*
X72945714Y-73540952D01*
X73517142Y-74112380D01*
X72898095Y-74112380D01*
X72279047Y-73112380D02*
X72183809Y-73112380D01*
X72088571Y-73160000D01*
X72040952Y-73207619D01*
X71993333Y-73302857D01*
X71945714Y-73493333D01*
X71945714Y-73731428D01*
X71993333Y-73921904D01*
X72040952Y-74017142D01*
X72088571Y-74064761D01*
X72183809Y-74112380D01*
X72279047Y-74112380D01*
X72374285Y-74064761D01*
X72421904Y-74017142D01*
X72469523Y-73921904D01*
X72517142Y-73731428D01*
X72517142Y-73493333D01*
X72469523Y-73302857D01*
X72421904Y-73207619D01*
X72374285Y-73160000D01*
X72279047Y-73112380D01*
X71564761Y-73207619D02*
X71517142Y-73160000D01*
X71421904Y-73112380D01*
X71183809Y-73112380D01*
X71088571Y-73160000D01*
X71040952Y-73207619D01*
X70993333Y-73302857D01*
X70993333Y-73398095D01*
X71040952Y-73540952D01*
X71612380Y-74112380D01*
X70993333Y-74112380D01*
X70374285Y-73112380D02*
X70279047Y-73112380D01*
X70183809Y-73160000D01*
X70136190Y-73207619D01*
X70088571Y-73302857D01*
X70040952Y-73493333D01*
X70040952Y-73731428D01*
X70088571Y-73921904D01*
X70136190Y-74017142D01*
X70183809Y-74064761D01*
X70279047Y-74112380D01*
X70374285Y-74112380D01*
X70469523Y-74064761D01*
X70517142Y-74017142D01*
X70564761Y-73921904D01*
X70612380Y-73731428D01*
X70612380Y-73493333D01*
X70564761Y-73302857D01*
X70517142Y-73207619D01*
X70469523Y-73160000D01*
X70374285Y-73112380D01*
X68850476Y-73731428D02*
X68088571Y-73731428D01*
X66898095Y-73445714D02*
X66183809Y-73445714D01*
X66612380Y-73017142D02*
X66898095Y-74302857D01*
X66279047Y-73874285D02*
X66993333Y-73874285D01*
X66564761Y-74302857D02*
X66279047Y-73017142D01*
X65945714Y-73112380D02*
X65707619Y-74112380D01*
X65517142Y-73398095D01*
X65326666Y-74112380D01*
X65088571Y-73112380D01*
X64326666Y-74064761D02*
X64421904Y-74112380D01*
X64612380Y-74112380D01*
X64707619Y-74064761D01*
X64755238Y-73969523D01*
X64755238Y-73588571D01*
X64707619Y-73493333D01*
X64612380Y-73445714D01*
X64421904Y-73445714D01*
X64326666Y-73493333D01*
X64279047Y-73588571D01*
X64279047Y-73683809D01*
X64755238Y-73779047D01*
X63898095Y-73826666D02*
X63421904Y-73826666D01*
X63993333Y-74112380D02*
X63660000Y-73112380D01*
X63326666Y-74112380D01*
X62993333Y-74112380D02*
X62993333Y-73445714D01*
X62993333Y-73636190D02*
X62945714Y-73540952D01*
X62898095Y-73493333D01*
X62802857Y-73445714D01*
X62707619Y-73445714D01*
X61993333Y-74064761D02*
X62088571Y-74112380D01*
X62279047Y-74112380D01*
X62374285Y-74064761D01*
X62421904Y-73969523D01*
X62421904Y-73588571D01*
X62374285Y-73493333D01*
X62279047Y-73445714D01*
X62088571Y-73445714D01*
X61993333Y-73493333D01*
X61945714Y-73588571D01*
X61945714Y-73683809D01*
X62421904Y-73779047D01*
X61564761Y-74064761D02*
X61421904Y-74112380D01*
X61183809Y-74112380D01*
X61088571Y-74064761D01*
X61040952Y-74017142D01*
X60993333Y-73921904D01*
X60993333Y-73826666D01*
X61040952Y-73731428D01*
X61088571Y-73683809D01*
X61183809Y-73636190D01*
X61374285Y-73588571D01*
X61469523Y-73540952D01*
X61517142Y-73493333D01*
X61564761Y-73398095D01*
X61564761Y-73302857D01*
X61517142Y-73207619D01*
X61469523Y-73160000D01*
X61374285Y-73112380D01*
X61136190Y-73112380D01*
X60993333Y-73160000D01*
X60564761Y-74112380D02*
X60564761Y-73445714D01*
X60564761Y-73112380D02*
X60612380Y-73160000D01*
X60564761Y-73207619D01*
X60517142Y-73160000D01*
X60564761Y-73112380D01*
X60564761Y-73207619D01*
X60088571Y-73445714D02*
X60088571Y-74112380D01*
X60088571Y-73540952D02*
X60040952Y-73493333D01*
X59945714Y-73445714D01*
X59802857Y-73445714D01*
X59707619Y-73493333D01*
X59660000Y-73588571D01*
X59660000Y-74112380D01*
X59231428Y-74064761D02*
X59136190Y-74112380D01*
X58945714Y-74112380D01*
X58850476Y-74064761D01*
X58802857Y-73969523D01*
X58802857Y-73921904D01*
X58850476Y-73826666D01*
X58945714Y-73779047D01*
X59088571Y-73779047D01*
X59183809Y-73731428D01*
X59231428Y-73636190D01*
X59231428Y-73588571D01*
X59183809Y-73493333D01*
X59088571Y-73445714D01*
X58945714Y-73445714D01*
X58850476Y-73493333D01*
X81859047Y-77035000D02*
X81954285Y-76987380D01*
X82097142Y-76987380D01*
X82240000Y-77035000D01*
X82335238Y-77130238D01*
X82382857Y-77225476D01*
X82430476Y-77415952D01*
X82430476Y-77558809D01*
X82382857Y-77749285D01*
X82335238Y-77844523D01*
X82240000Y-77939761D01*
X82097142Y-77987380D01*
X82001904Y-77987380D01*
X81859047Y-77939761D01*
X81811428Y-77892142D01*
X81811428Y-77558809D01*
X82001904Y-77558809D01*
X80954285Y-77987380D02*
X80954285Y-77463571D01*
X81001904Y-77368333D01*
X81097142Y-77320714D01*
X81287619Y-77320714D01*
X81382857Y-77368333D01*
X80954285Y-77939761D02*
X81049523Y-77987380D01*
X81287619Y-77987380D01*
X81382857Y-77939761D01*
X81430476Y-77844523D01*
X81430476Y-77749285D01*
X81382857Y-77654047D01*
X81287619Y-77606428D01*
X81049523Y-77606428D01*
X80954285Y-77558809D01*
X80478095Y-77987380D02*
X80478095Y-77320714D01*
X80478095Y-77511190D02*
X80430476Y-77415952D01*
X80382857Y-77368333D01*
X80287619Y-77320714D01*
X80192380Y-77320714D01*
X79430476Y-77987380D02*
X79430476Y-77463571D01*
X79478095Y-77368333D01*
X79573333Y-77320714D01*
X79763809Y-77320714D01*
X79859047Y-77368333D01*
X79430476Y-77939761D02*
X79525714Y-77987380D01*
X79763809Y-77987380D01*
X79859047Y-77939761D01*
X79906666Y-77844523D01*
X79906666Y-77749285D01*
X79859047Y-77654047D01*
X79763809Y-77606428D01*
X79525714Y-77606428D01*
X79430476Y-77558809D01*
X79097142Y-77320714D02*
X78716190Y-77320714D01*
X78954285Y-76987380D02*
X78954285Y-77844523D01*
X78906666Y-77939761D01*
X78811428Y-77987380D01*
X78716190Y-77987380D01*
X78382857Y-77987380D02*
X78382857Y-77320714D01*
X78382857Y-77511190D02*
X78335238Y-77415952D01*
X78287619Y-77368333D01*
X78192380Y-77320714D01*
X78097142Y-77320714D01*
X77620952Y-77987380D02*
X77716190Y-77939761D01*
X77763809Y-77892142D01*
X77811428Y-77796904D01*
X77811428Y-77511190D01*
X77763809Y-77415952D01*
X77716190Y-77368333D01*
X77620952Y-77320714D01*
X77478095Y-77320714D01*
X77382857Y-77368333D01*
X77335238Y-77415952D01*
X77287619Y-77511190D01*
X77287619Y-77796904D01*
X77335238Y-77892142D01*
X77382857Y-77939761D01*
X77478095Y-77987380D01*
X77620952Y-77987380D01*
X76859047Y-77320714D02*
X76859047Y-77987380D01*
X76859047Y-77415952D02*
X76811428Y-77368333D01*
X76716190Y-77320714D01*
X76573333Y-77320714D01*
X76478095Y-77368333D01*
X76430476Y-77463571D01*
X76430476Y-77987380D01*
X75954285Y-77987380D02*
X75954285Y-77320714D01*
X75954285Y-76987380D02*
X76001904Y-77035000D01*
X75954285Y-77082619D01*
X75906666Y-77035000D01*
X75954285Y-76987380D01*
X75954285Y-77082619D01*
X75049523Y-77939761D02*
X75144761Y-77987380D01*
X75335238Y-77987380D01*
X75430476Y-77939761D01*
X75478095Y-77892142D01*
X75525714Y-77796904D01*
X75525714Y-77511190D01*
X75478095Y-77415952D01*
X75430476Y-77368333D01*
X75335238Y-77320714D01*
X75144761Y-77320714D01*
X75049523Y-77368333D01*
X82216190Y-79637380D02*
X82216190Y-78637380D01*
X81882857Y-79351666D01*
X81549523Y-78637380D01*
X81549523Y-79637380D01*
X80501904Y-79542142D02*
X80549523Y-79589761D01*
X80692380Y-79637380D01*
X80787619Y-79637380D01*
X80930476Y-79589761D01*
X81025714Y-79494523D01*
X81073333Y-79399285D01*
X81120952Y-79208809D01*
X81120952Y-79065952D01*
X81073333Y-78875476D01*
X81025714Y-78780238D01*
X80930476Y-78685000D01*
X80787619Y-78637380D01*
X80692380Y-78637380D01*
X80549523Y-78685000D01*
X80501904Y-78732619D01*
X79311428Y-79637380D02*
X79311428Y-78637380D01*
X79311428Y-79113571D02*
X78740000Y-79113571D01*
X78740000Y-79637380D02*
X78740000Y-78637380D01*
X78120952Y-79637380D02*
X78216190Y-79589761D01*
X78263809Y-79542142D01*
X78311428Y-79446904D01*
X78311428Y-79161190D01*
X78263809Y-79065952D01*
X78216190Y-79018333D01*
X78120952Y-78970714D01*
X77978095Y-78970714D01*
X77882857Y-79018333D01*
X77835238Y-79065952D01*
X77787619Y-79161190D01*
X77787619Y-79446904D01*
X77835238Y-79542142D01*
X77882857Y-79589761D01*
X77978095Y-79637380D01*
X78120952Y-79637380D01*
X77359047Y-79637380D02*
X77359047Y-78637380D01*
X77359047Y-79018333D02*
X77263809Y-78970714D01*
X77073333Y-78970714D01*
X76978095Y-79018333D01*
X76930476Y-79065952D01*
X76882857Y-79161190D01*
X76882857Y-79446904D01*
X76930476Y-79542142D01*
X76978095Y-79589761D01*
X77073333Y-79637380D01*
X77263809Y-79637380D01*
X77359047Y-79589761D01*
X76454285Y-79637380D02*
X76454285Y-78637380D01*
X76454285Y-79018333D02*
X76359047Y-78970714D01*
X76168571Y-78970714D01*
X76073333Y-79018333D01*
X76025714Y-79065952D01*
X75978095Y-79161190D01*
X75978095Y-79446904D01*
X76025714Y-79542142D01*
X76073333Y-79589761D01*
X76168571Y-79637380D01*
X76359047Y-79637380D01*
X76454285Y-79589761D01*
X75644761Y-78970714D02*
X75406666Y-79637380D01*
X75168571Y-78970714D02*
X75406666Y-79637380D01*
X75501904Y-79875476D01*
X75549523Y-79923095D01*
X75644761Y-79970714D01*
X83430476Y-80763571D02*
X83763809Y-80763571D01*
X83763809Y-81287380D02*
X83763809Y-80287380D01*
X83287619Y-80287380D01*
X82906666Y-81287380D02*
X82906666Y-80620714D01*
X82906666Y-80811190D02*
X82859047Y-80715952D01*
X82811428Y-80668333D01*
X82716190Y-80620714D01*
X82620952Y-80620714D01*
X81859047Y-81287380D02*
X81859047Y-80763571D01*
X81906666Y-80668333D01*
X82001904Y-80620714D01*
X82192380Y-80620714D01*
X82287619Y-80668333D01*
X81859047Y-81239761D02*
X81954285Y-81287380D01*
X82192380Y-81287380D01*
X82287619Y-81239761D01*
X82335238Y-81144523D01*
X82335238Y-81049285D01*
X82287619Y-80954047D01*
X82192380Y-80906428D01*
X81954285Y-80906428D01*
X81859047Y-80858809D01*
X81382857Y-81287380D02*
X81382857Y-80620714D01*
X81382857Y-80715952D02*
X81335238Y-80668333D01*
X81240000Y-80620714D01*
X81097142Y-80620714D01*
X81001904Y-80668333D01*
X80954285Y-80763571D01*
X80954285Y-81287380D01*
X80954285Y-80763571D02*
X80906666Y-80668333D01*
X80811428Y-80620714D01*
X80668571Y-80620714D01*
X80573333Y-80668333D01*
X80525714Y-80763571D01*
X80525714Y-81287380D01*
X80049523Y-81287380D02*
X80049523Y-80287380D01*
X80049523Y-80668333D02*
X79954285Y-80620714D01*
X79763809Y-80620714D01*
X79668571Y-80668333D01*
X79620952Y-80715952D01*
X79573333Y-80811190D01*
X79573333Y-81096904D01*
X79620952Y-81192142D01*
X79668571Y-81239761D01*
X79763809Y-81287380D01*
X79954285Y-81287380D01*
X80049523Y-81239761D01*
X79001904Y-81287380D02*
X79097142Y-81239761D01*
X79144761Y-81192142D01*
X79192380Y-81096904D01*
X79192380Y-80811190D01*
X79144761Y-80715952D01*
X79097142Y-80668333D01*
X79001904Y-80620714D01*
X78859047Y-80620714D01*
X78763809Y-80668333D01*
X78716190Y-80715952D01*
X78668571Y-80811190D01*
X78668571Y-81096904D01*
X78716190Y-81192142D01*
X78763809Y-81239761D01*
X78859047Y-81287380D01*
X79001904Y-81287380D01*
X78240000Y-81287380D02*
X78240000Y-80620714D01*
X78240000Y-80287380D02*
X78287619Y-80335000D01*
X78240000Y-80382619D01*
X78192380Y-80335000D01*
X78240000Y-80287380D01*
X78240000Y-80382619D01*
X77811428Y-81239761D02*
X77716190Y-81287380D01*
X77525714Y-81287380D01*
X77430476Y-81239761D01*
X77382857Y-81144523D01*
X77382857Y-81096904D01*
X77430476Y-81001666D01*
X77525714Y-80954047D01*
X77668571Y-80954047D01*
X77763809Y-80906428D01*
X77811428Y-80811190D01*
X77811428Y-80763571D01*
X77763809Y-80668333D01*
X77668571Y-80620714D01*
X77525714Y-80620714D01*
X77430476Y-80668333D01*
X76573333Y-81239761D02*
X76668571Y-81287380D01*
X76859047Y-81287380D01*
X76954285Y-81239761D01*
X77001904Y-81144523D01*
X77001904Y-80763571D01*
X76954285Y-80668333D01*
X76859047Y-80620714D01*
X76668571Y-80620714D01*
X76573333Y-80668333D01*
X76525714Y-80763571D01*
X76525714Y-80858809D01*
X77001904Y-80954047D01*
X76192380Y-80287380D02*
X75573333Y-80287380D01*
X75906666Y-80668333D01*
X75763809Y-80668333D01*
X75668571Y-80715952D01*
X75620952Y-80763571D01*
X75573333Y-80858809D01*
X75573333Y-81096904D01*
X75620952Y-81192142D01*
X75668571Y-81239761D01*
X75763809Y-81287380D01*
X76049523Y-81287380D01*
X76144761Y-81239761D01*
X76192380Y-81192142D01*
X74620952Y-81287380D02*
X75192380Y-81287380D01*
X74906666Y-81287380D02*
X74906666Y-80287380D01*
X75001904Y-80430238D01*
X75097142Y-80525476D01*
X75192380Y-80573095D01*
X73763809Y-80620714D02*
X73763809Y-81287380D01*
X74001904Y-80239761D02*
X74240000Y-80954047D01*
X73620952Y-80954047D01*
X82216190Y-82937380D02*
X82216190Y-81937380D01*
X81835238Y-81937380D01*
X81740000Y-81985000D01*
X81692380Y-82032619D01*
X81644761Y-82127857D01*
X81644761Y-82270714D01*
X81692380Y-82365952D01*
X81740000Y-82413571D01*
X81835238Y-82461190D01*
X82216190Y-82461190D01*
X80787619Y-82937380D02*
X80787619Y-82413571D01*
X80835238Y-82318333D01*
X80930476Y-82270714D01*
X81120952Y-82270714D01*
X81216190Y-82318333D01*
X80787619Y-82889761D02*
X80882857Y-82937380D01*
X81120952Y-82937380D01*
X81216190Y-82889761D01*
X81263809Y-82794523D01*
X81263809Y-82699285D01*
X81216190Y-82604047D01*
X81120952Y-82556428D01*
X80882857Y-82556428D01*
X80787619Y-82508809D01*
X80311428Y-82270714D02*
X80311428Y-83270714D01*
X80311428Y-82318333D02*
X80216190Y-82270714D01*
X80025714Y-82270714D01*
X79930476Y-82318333D01*
X79882857Y-82365952D01*
X79835238Y-82461190D01*
X79835238Y-82746904D01*
X79882857Y-82842142D01*
X79930476Y-82889761D01*
X80025714Y-82937380D01*
X80216190Y-82937380D01*
X80311428Y-82889761D01*
X79454285Y-82889761D02*
X79359047Y-82937380D01*
X79168571Y-82937380D01*
X79073333Y-82889761D01*
X79025714Y-82794523D01*
X79025714Y-82746904D01*
X79073333Y-82651666D01*
X79168571Y-82604047D01*
X79311428Y-82604047D01*
X79406666Y-82556428D01*
X79454285Y-82461190D01*
X79454285Y-82413571D01*
X79406666Y-82318333D01*
X79311428Y-82270714D01*
X79168571Y-82270714D01*
X79073333Y-82318333D01*
X78168571Y-82937380D02*
X78168571Y-81937380D01*
X78168571Y-82889761D02*
X78263809Y-82937380D01*
X78454285Y-82937380D01*
X78549523Y-82889761D01*
X78597142Y-82842142D01*
X78644761Y-82746904D01*
X78644761Y-82461190D01*
X78597142Y-82365952D01*
X78549523Y-82318333D01*
X78454285Y-82270714D01*
X78263809Y-82270714D01*
X78168571Y-82318333D01*
X77692380Y-82937380D02*
X77692380Y-82270714D01*
X77692380Y-82461190D02*
X77644761Y-82365952D01*
X77597142Y-82318333D01*
X77501904Y-82270714D01*
X77406666Y-82270714D01*
X76930476Y-82937380D02*
X77025714Y-82889761D01*
X77073333Y-82842142D01*
X77120952Y-82746904D01*
X77120952Y-82461190D01*
X77073333Y-82365952D01*
X77025714Y-82318333D01*
X76930476Y-82270714D01*
X76787619Y-82270714D01*
X76692380Y-82318333D01*
X76644761Y-82365952D01*
X76597142Y-82461190D01*
X76597142Y-82746904D01*
X76644761Y-82842142D01*
X76692380Y-82889761D01*
X76787619Y-82937380D01*
X76930476Y-82937380D01*
X76168571Y-82937380D02*
X76168571Y-82270714D01*
X76168571Y-81937380D02*
X76216190Y-81985000D01*
X76168571Y-82032619D01*
X76120952Y-81985000D01*
X76168571Y-81937380D01*
X76168571Y-82032619D01*
X75263809Y-82937380D02*
X75263809Y-81937380D01*
X75263809Y-82889761D02*
X75359047Y-82937380D01*
X75549523Y-82937380D01*
X75644761Y-82889761D01*
X75692380Y-82842142D01*
X75740000Y-82746904D01*
X75740000Y-82461190D01*
X75692380Y-82365952D01*
X75644761Y-82318333D01*
X75549523Y-82270714D01*
X75359047Y-82270714D01*
X75263809Y-82318333D01*
X97281904Y-68715000D02*
X97377142Y-68667380D01*
X97520000Y-68667380D01*
X97662857Y-68715000D01*
X97758095Y-68810238D01*
X97805714Y-68905476D01*
X97853333Y-69095952D01*
X97853333Y-69238809D01*
X97805714Y-69429285D01*
X97758095Y-69524523D01*
X97662857Y-69619761D01*
X97520000Y-69667380D01*
X97424761Y-69667380D01*
X97281904Y-69619761D01*
X97234285Y-69572142D01*
X97234285Y-69238809D01*
X97424761Y-69238809D01*
X96805714Y-69667380D02*
X96805714Y-68667380D01*
X96234285Y-69667380D01*
X96234285Y-68667380D01*
X95758095Y-69667380D02*
X95758095Y-68667380D01*
X95520000Y-68667380D01*
X95377142Y-68715000D01*
X95281904Y-68810238D01*
X95234285Y-68905476D01*
X95186666Y-69095952D01*
X95186666Y-69238809D01*
X95234285Y-69429285D01*
X95281904Y-69524523D01*
X95377142Y-69619761D01*
X95520000Y-69667380D01*
X95758095Y-69667380D01*
X97805714Y-75001428D02*
X97043809Y-75001428D01*
X97424761Y-75382380D02*
X97424761Y-74620476D01*
X96091428Y-74382380D02*
X96567619Y-74382380D01*
X96615238Y-74858571D01*
X96567619Y-74810952D01*
X96472380Y-74763333D01*
X96234285Y-74763333D01*
X96139047Y-74810952D01*
X96091428Y-74858571D01*
X96043809Y-74953809D01*
X96043809Y-75191904D01*
X96091428Y-75287142D01*
X96139047Y-75334761D01*
X96234285Y-75382380D01*
X96472380Y-75382380D01*
X96567619Y-75334761D01*
X96615238Y-75287142D01*
X95758095Y-74382380D02*
X95424761Y-75382380D01*
X95091428Y-74382380D01*
D10*
X109210000Y-62413000D02*
X107460000Y-62413000D01*
X121710000Y-62413000D02*
X121710000Y-65913000D01*
X124460000Y-63413000D02*
X124460000Y-96663000D01*
X109210000Y-65913000D02*
X109210000Y-62413000D01*
X109210000Y-65913000D02*
G75*
G03X110210000Y-66913000I1000000J0D01*
G01*
X120710000Y-66913000D02*
X110210000Y-66913000D01*
X124460000Y-96663000D02*
G75*
G03X123460000Y-97663000I0J-1000000D01*
G01*
X113760000Y-94213000D02*
G75*
G03X113760000Y-94213000I-1800000J0D01*
G01*
X120710000Y-66913000D02*
G75*
G03X121710000Y-65913000I0J1000000D01*
G01*
X123460000Y-97663000D02*
X107460000Y-97663000D01*
X123460000Y-62413000D02*
X121710000Y-62413000D01*
X123460000Y-62413000D02*
G75*
G03X124460000Y-63413000I1000000J0D01*
G01*
X120760000Y-94213000D02*
G75*
G03X120760000Y-94213000I-1800000J0D01*
G01*
X106460000Y-96663000D02*
X106460000Y-63413000D01*
X106460000Y-63413000D02*
G75*
G03X107460000Y-62413000I0J1000000D01*
G01*
X107460000Y-97663000D02*
G75*
G03X106460000Y-96663000I-1000000J0D01*
G01*
D12*
X92770000Y-78570000D02*
X91720000Y-78570000D01*
X91720000Y-77520000D02*
X91720000Y-78570000D01*
X101120000Y-72470000D02*
X101120000Y-63670000D01*
X101120000Y-63670000D02*
X91920000Y-63670000D01*
X98420000Y-78370000D02*
X101120000Y-78370000D01*
X101120000Y-78370000D02*
X101120000Y-76470000D01*
X91920000Y-63670000D02*
X91920000Y-78370000D01*
X91920000Y-78370000D02*
X94520000Y-78370000D01*
X109280000Y-96580000D02*
X106620000Y-96580000D01*
X109280000Y-66040000D02*
X109280000Y-96580000D01*
X106620000Y-66040000D02*
X106620000Y-96580000D01*
X109280000Y-66040000D02*
X106620000Y-66040000D01*
X109280000Y-64770000D02*
X109280000Y-63440000D01*
X109280000Y-63440000D02*
X107950000Y-63440000D01*
X124520000Y-96580000D02*
X121860000Y-96580000D01*
X124520000Y-66040000D02*
X124520000Y-96580000D01*
X121860000Y-66040000D02*
X121860000Y-96580000D01*
X124520000Y-66040000D02*
X121860000Y-66040000D01*
X124520000Y-64770000D02*
X124520000Y-63440000D01*
X124520000Y-63440000D02*
X123190000Y-63440000D01*
D11*
X110823333Y-68032380D02*
X110823333Y-68746666D01*
X110870952Y-68889523D01*
X110966190Y-68984761D01*
X111109047Y-69032380D01*
X111204285Y-69032380D01*
X109823333Y-69032380D02*
X110394761Y-69032380D01*
X110109047Y-69032380D02*
X110109047Y-68032380D01*
X110204285Y-68175238D01*
X110299523Y-68270476D01*
X110394761Y-68318095D01*
X120983333Y-68032380D02*
X120983333Y-68746666D01*
X121030952Y-68889523D01*
X121126190Y-68984761D01*
X121269047Y-69032380D01*
X121364285Y-69032380D01*
X120554761Y-68127619D02*
X120507142Y-68080000D01*
X120411904Y-68032380D01*
X120173809Y-68032380D01*
X120078571Y-68080000D01*
X120030952Y-68127619D01*
X119983333Y-68222857D01*
X119983333Y-68318095D01*
X120030952Y-68460952D01*
X120602380Y-69032380D01*
X119983333Y-69032380D01*
M02*
