G04 #@! TF.GenerationSoftware,KiCad,Pcbnew,5.1.4+dfsg1-1~bpo10+1*
G04 #@! TF.CreationDate,2020-06-27T23:46:46+02:00*
G04 #@! TF.ProjectId,SinS,53696e53-2e6b-4696-9361-645f70636258,rev?*
G04 #@! TF.SameCoordinates,Original*
G04 #@! TF.FileFunction,Profile,NP*
%FSLAX46Y46*%
G04 Gerber Fmt 4.6, Leading zero omitted, Abs format (unit mm)*
G04 Created by KiCad (PCBNEW 5.1.4+dfsg1-1~bpo10+1) date 2020-06-27 23:46:46*
%MOMM*%
%LPD*%
G04 APERTURE LIST*
%ADD10C,0.050000*%
G04 APERTURE END LIST*
D10*
X90805000Y-63500000D02*
G75*
G02X90170000Y-62865000I0J635000D01*
G01*
X89535000Y-62230000D02*
G75*
G02X90170000Y-62865000I0J-635000D01*
G01*
X102235000Y-62865000D02*
G75*
G02X101600000Y-63500000I-635000J0D01*
G01*
X102235000Y-62865000D02*
G75*
G02X102870000Y-62230000I635000J0D01*
G01*
X121285000Y-66040000D02*
G75*
G02X120650000Y-66675000I-635000J0D01*
G01*
X110490000Y-66675000D02*
G75*
G02X109855000Y-66040000I0J635000D01*
G01*
X102870000Y-62230000D02*
X109220000Y-62230000D01*
X90805000Y-63500000D02*
X90805000Y-63500000D01*
X101600000Y-63500000D02*
X90805000Y-63500000D01*
X121285000Y-62865000D02*
G75*
G02X121920000Y-62230000I635000J0D01*
G01*
X109220000Y-62230000D02*
G75*
G02X109855000Y-62865000I0J-635000D01*
G01*
X121920000Y-62230000D02*
X134620000Y-62230000D01*
X54610000Y-62230000D02*
X89535000Y-62230000D01*
X121285000Y-66040000D02*
X121285000Y-62865000D01*
X110490000Y-66675000D02*
X120650000Y-66675000D01*
X109855000Y-62865000D02*
X109855000Y-66040000D01*
X52070000Y-64770000D02*
X52070000Y-138430000D01*
X137160000Y-137160000D02*
G75*
G02X133350000Y-140970000I-3810000J0D01*
G01*
X54610000Y-140970000D02*
G75*
G02X52070000Y-138430000I0J2540000D01*
G01*
X134620000Y-62230000D02*
G75*
G02X137160000Y-64770000I0J-2540000D01*
G01*
X52070000Y-64770000D02*
G75*
G02X54610000Y-62230000I2540000J0D01*
G01*
X137160000Y-64770000D02*
X137160000Y-137160000D01*
X54610000Y-140970000D02*
X133350000Y-140970000D01*
M02*
